<svg width="20" height="9" viewBox="0 0 20 9" fill="none" xmlns="http://www.w3.org/2000/svg">
<path d="M0.779648 5.59375L2.96715 8.17188C3.01923 8.27604 3.1234 8.32813 3.27965 8.32813C3.4359 8.32813 3.57923 8.28896 3.70965 8.21063C3.84007 8.13229 3.90527 8.015 3.90527 7.85875C3.90527 7.7025 3.85319 7.57229 3.74902 7.46812L1.71777 5.04625L19.0615 5.04625C19.2178 5.04625 19.348 4.99417 19.4521 4.89C19.5563 4.78583 19.6084 4.65563 19.6084 4.49938C19.6084 4.34313 19.5563 4.19979 19.4521 4.06938C19.348 3.93896 19.2178 3.87375 19.0615 3.87375L1.71777 3.87375L3.74902 1.53C3.85319 1.42583 3.90527 1.29562 3.90527 1.13937C3.90527 0.983125 3.85319 0.852916 3.74902 0.74875C3.64486 0.644583 3.51465 0.5925 3.3584 0.5925C3.20215 0.5925 3.07194 0.644583 2.96777 0.74875L0.780273 3.32687C0.519857 3.69146 0.389648 4.08208 0.389648 4.49875C0.389648 4.91542 0.519857 5.28 0.780273 5.5925L0.779648 5.59375Z" fill="#1B1918"/>
</svg>
