<svg width="20" height="9" viewBox="0 0 20 9" fill="none" xmlns="http://www.w3.org/2000/svg">
<path d="M19.2184 3.36658L17.0309 0.788452C16.9788 0.684285 16.8746 0.632202 16.7184 0.632202C16.5621 0.632202 16.4188 0.671369 16.2884 0.749702C16.158 0.828035 16.0928 0.945327 16.0928 1.10158C16.0928 1.25783 16.1449 1.38804 16.249 1.4922L18.2803 3.91408H0.936523C0.780273 3.91408 0.650065 3.96616 0.545898 4.07033C0.441732 4.17449 0.389648 4.3047 0.389648 4.46095C0.389648 4.6172 0.441732 4.76053 0.545898 4.89095C0.650065 5.02137 0.780273 5.08658 0.936523 5.08658H18.2803L16.249 7.43033C16.1449 7.53449 16.0928 7.6647 16.0928 7.82095C16.0928 7.9772 16.1449 8.10741 16.249 8.21158C16.3532 8.31574 16.4834 8.36783 16.6396 8.36783C16.7959 8.36783 16.9261 8.31574 17.0303 8.21158L19.2178 5.63345C19.4782 5.26887 19.6084 4.87824 19.6084 4.46158C19.6084 4.04491 19.4782 3.68033 19.2178 3.36783L19.2184 3.36658Z" fill="#A40731"/>
</svg>
