<svg width="70" height="70" viewBox="0 0 70 70" fill="none" xmlns="http://www.w3.org/2000/svg">
<path d="M58.3788 33.0108C57.813 33.0108 57.2573 33.0534 56.7129 33.1321L56.0008 30.4745C56.7747 30.3449 57.5689 30.2764 58.3789 30.2764C59.5059 30.2764 60.6301 30.4082 61.7202 30.668C62.2474 30.7936 62.799 30.5961 63.1263 30.1643C66.3016 25.9789 66.4837 23.4833 63.8479 20.2742C60.4461 16.133 57.3162 14.0051 54.279 13.7691C52.0037 13.5918 49.8127 14.4768 47.5735 16.4725C47.279 16.7348 47.1122 17.1118 47.1159 17.5063C47.1197 17.9009 47.2938 18.2744 47.5933 18.5312L49.8256 20.4447C49.7345 20.841 49.656 21.2154 49.5834 21.5621C49.3966 22.4529 49.2488 23.1542 49.013 23.7356C48.691 23.5481 48.3738 23.3625 48.0622 23.18C43.4742 20.4934 39.8511 18.3711 36.1621 19.392C33.7114 20.0701 31.561 22.0852 29.4405 25.7038L19.0714 22.7366L18.4312 20.7561C17.7722 18.7174 16.365 17.6031 14.0031 17.2507L2.275 15.2643C1.78295 15.1806 1.28461 15.3723 0.974805 15.7636C0.665 16.1547 0.593086 16.6837 0.786953 17.1436C3.70795 24.0675 4.81441 25.8965 8.98393 27.9682L19.0479 32.9683C21.6449 34.2585 22.575 35.2448 23.3751 37.557L25.35 43.2647H23.1591C22.4798 37.4991 17.5662 33.0108 11.6211 33.0108C5.21322 33.0108 0 38.224 0 44.6319C0 51.0397 5.21322 56.253 11.6211 56.253C17.5663 56.253 22.48 51.7646 23.1591 45.9991H26.2961L27.6333 49.8641C27.8239 50.4148 28.3426 50.7842 28.9253 50.7842H43.3984C43.8346 50.7842 44.2449 50.576 44.5024 50.2235C44.7598 49.8711 44.8335 49.417 44.7007 49.0014C44.2511 47.5921 44.023 46.1221 44.023 44.6319C44.023 38.481 47.9117 33.2221 53.3594 31.1826L54.0719 33.8416C49.7907 35.5566 46.7574 39.7454 46.7574 44.632C46.7574 51.0399 51.9706 56.2531 58.3785 56.2531C64.7864 56.2531 69.9996 51.0399 69.9996 44.632C69.9996 38.2241 64.7866 33.0108 58.3788 33.0108ZM11.6211 53.5186C6.72096 53.5186 2.73438 49.532 2.73438 44.6319C2.73438 39.7317 6.72096 35.7452 11.6211 35.7452C16.0564 35.7452 19.7429 39.0114 20.4025 43.2647H17.6185C16.995 40.5284 14.5436 38.4795 11.6211 38.4795C8.22869 38.4795 5.46875 41.2395 5.46875 44.6319C5.46875 48.0243 8.22869 50.7842 11.6211 50.7842C14.5436 50.7842 16.9948 48.7354 17.6185 45.9991H20.4025C19.7429 50.2524 16.0564 53.5186 11.6211 53.5186ZM11.6211 45.9991H14.7529C14.2244 47.2049 13.0199 48.0498 11.6211 48.0498C9.73643 48.0498 8.20313 46.5165 8.20313 44.6319C8.20313 42.7472 9.73643 41.2139 11.6211 41.2139C13.0199 41.2139 14.2244 42.0588 14.7529 43.2647H11.6211C10.866 43.2647 10.2539 43.8769 10.2539 44.6319C10.2539 45.3868 10.866 45.9991 11.6211 45.9991ZM36.8914 22.0273C39.4657 21.3152 42.6497 23.1793 46.6806 25.5395C46.788 25.6024 46.8971 25.6662 47.0058 25.73C46.7748 25.8428 46.5203 25.9538 46.236 26.0648L39.6657 28.6299L32.1638 26.4831C33.753 23.9288 35.3072 22.4657 36.8914 22.0273ZM44.1809 35.1299H39.7157C38.9607 35.1299 38.3485 35.7421 38.3485 36.4971C38.3485 37.2521 38.9607 37.8643 39.7157 37.8643H42.6874C42.308 38.7405 42.0003 39.6544 41.7709 40.5988H36.6399C35.885 40.5988 35.2728 41.211 35.2728 41.966C35.2728 42.721 35.885 43.3332 36.6399 43.3332H41.3379C41.3055 43.7619 41.2888 44.1949 41.2888 44.6319C41.2888 45.7855 41.4038 46.9292 41.6317 48.0498H29.899L25.9591 36.6629C24.795 33.2986 23.0595 31.9081 20.2645 30.5194L10.2006 25.5193C7.37639 24.1161 6.37889 23.0648 4.29762 18.3801L13.5603 19.9491C13.5699 19.9507 13.5793 19.9522 13.5889 19.9536C15.0977 20.1764 15.5403 20.7031 15.8294 21.5972L16.6939 24.2712C16.834 24.7046 17.1808 25.0397 17.6187 25.165L39.357 31.3857C39.6446 31.4682 39.9517 31.4537 40.2303 31.3449L47.2303 28.612C51.2259 27.0522 51.705 24.7681 52.2595 22.1233C52.3806 21.5455 52.506 20.9481 52.6761 20.3028C52.8099 19.796 52.6419 19.2573 52.2439 18.916L50.6369 17.5386C51.8257 16.7423 52.9396 16.4087 54.0669 16.4953C56.2914 16.6682 58.8712 18.5237 61.7349 22.0098C62.4131 22.8355 62.9546 23.4964 62.9476 24.4463L61.0864 23.6803C60.3874 23.3926 59.589 23.7261 59.3016 24.424C59.0141 25.1222 59.3473 25.9214 60.0454 26.2087L61.9914 27.0098C61.8345 27.2637 61.6572 27.5322 61.4548 27.8194C60.4424 27.6351 59.4114 27.5422 58.3785 27.5422C52.4692 27.542 47.2512 30.5574 44.1809 35.1299ZM58.3788 53.5186C53.4786 53.5186 49.4921 49.532 49.4921 44.6319C49.4921 41.0101 51.6712 37.8893 54.7862 36.5065L55.5062 39.1936C53.5574 40.2272 52.2264 42.2765 52.2264 44.6319C52.2264 48.0243 54.9864 50.7842 58.3788 50.7842C61.7712 50.7842 64.5311 48.0243 64.5311 44.6319C64.5311 41.2395 61.7712 38.4795 58.3788 38.4795C58.3011 38.4795 58.2241 38.4825 58.1473 38.4854L57.4269 35.7968C57.7399 35.7633 58.0572 35.7452 58.3789 35.7452C63.279 35.7452 67.2656 39.7317 67.2656 44.6319C67.2656 49.532 63.2789 53.5186 58.3788 53.5186ZM57.0582 44.9857C57.2219 45.5966 57.7742 45.9995 58.378 45.9995C58.495 45.9995 58.6142 45.9843 58.7326 45.9524C59.462 45.7569 59.8948 45.0073 59.6993 44.278L58.8886 41.2521C60.5324 41.499 61.7967 42.9204 61.7967 44.6319C61.7967 46.5165 60.2634 48.0498 58.3788 48.0498C56.4941 48.0498 54.9608 46.5165 54.9608 44.6319C54.9608 43.5525 55.4642 42.589 56.248 41.9622L57.0582 44.9857Z" fill="#42403F"/>
<path d="M33.563 35.1298H33.5621C32.807 35.1298 32.1953 35.742 32.1953 36.4969C32.1953 37.2519 32.8079 37.8641 33.563 37.8641C34.3181 37.8641 34.9302 37.2519 34.9302 36.4969C34.9302 35.742 34.3181 35.1298 33.563 35.1298Z" fill="#42403F"/>
</svg>
