<svg width="70" height="70" viewBox="0 0 70 70" fill="none" xmlns="http://www.w3.org/2000/svg">
<path d="M14.9575 45.0035C14.2672 45.0035 13.7075 45.5632 13.7075 46.2535C13.7075 46.9161 13.1687 47.4552 12.5064 47.4552C11.8437 47.4552 11.3047 46.9161 11.3047 46.2535C11.3047 45.5911 11.8437 45.0522 12.5064 45.0522C13.1967 45.0522 13.7564 44.4926 13.7564 43.8022C13.7564 43.1119 13.1967 42.5522 12.5064 42.5522C10.4653 42.5522 8.80469 44.2126 8.80469 46.2535C8.80469 48.2946 10.4653 49.9552 12.5064 49.9552C14.5472 49.9552 16.2075 48.2946 16.2075 46.2535C16.2075 45.5632 15.6478 45.0035 14.9575 45.0035Z" fill="#42403F"/>
<path d="M60.0122 45.0035C59.3219 45.0035 58.7622 45.5632 58.7622 46.2535C58.7622 46.9161 58.2234 47.4552 57.5611 47.4552C56.8984 47.4552 56.3594 46.9161 56.3594 46.2535C56.3594 45.5911 56.8984 45.0522 57.5611 45.0522C58.2514 45.0522 58.8111 44.4926 58.8111 43.8022C58.8111 43.1119 58.2514 42.5522 57.5611 42.5522C55.52 42.5522 53.8594 44.2126 53.8594 46.2535C53.8594 48.2946 55.52 49.9552 57.5611 49.9552C59.6019 49.9552 61.2622 48.2946 61.2622 46.2535C61.2622 45.5632 60.7025 45.0035 60.0122 45.0035Z" fill="#42403F"/>
<path d="M65 16.2426H5C2.24297 16.2426 0 18.4855 0 21.2426V41.6819C0 45.1032 2.89703 46.7249 5.07484 47.2891C5.58125 50.9382 8.71969 53.7574 12.5058 53.7574C15.7463 53.7574 18.513 51.6916 19.56 48.8077H50.5078C51.5552 51.6916 54.3225 53.7574 57.5636 53.7574C60.8041 53.7574 63.5708 51.6916 64.6178 48.8077H68.75C69.4403 48.8077 70 48.248 70 47.5577V21.2426C70 18.4855 67.757 16.2426 65 16.2426ZM67.5 33.7096H62.5578C61.8545 33.7096 61.2825 33.1374 61.2825 32.4343V22.5316H67.5V33.7096ZM12.5058 51.2572C9.845 51.2572 7.66328 49.1696 7.51094 46.5463C7.52266 46.4977 7.53234 46.4485 7.53828 46.3976C7.55578 46.2471 7.54437 46.1002 7.51078 45.961C7.66281 43.3377 9.84469 41.2499 12.5058 41.2499C15.2641 41.2499 17.5083 43.4944 17.5083 46.2532C17.5083 49.0124 15.2641 51.2572 12.5058 51.2572ZM27.5911 22.5316H41.2923V33.7096H27.5911V22.5316ZM25.0911 33.7096H8.77703C8.07375 33.7096 7.50172 33.1374 7.50172 32.4343V22.5316H25.0911V33.7096ZM55.0981 22.5316V32.486C55.0981 33.1607 54.5492 33.7096 53.8745 33.7096H43.7923V22.5316H55.0981ZM41.2923 36.2096V46.3076H27.5911V36.2096H41.2923ZM57.5636 51.2572C54.8044 51.2572 52.5595 49.0124 52.5595 46.2532C52.5595 43.4944 54.8044 41.2499 57.5636 41.2499C60.3219 41.2499 62.5661 43.4944 62.5661 46.2532C62.5661 49.0124 60.322 51.2572 57.5636 51.2572ZM65.0647 46.3076C65.0648 46.2894 65.0661 46.2715 65.0661 46.2532C65.0661 42.1158 61.7005 38.7499 57.5636 38.7499C53.4259 38.7499 50.0595 42.1158 50.0595 46.2532C50.0595 46.2715 50.0608 46.2894 50.0609 46.3076H43.7923V36.2096H53.8745C55.9278 36.2096 57.5981 34.5393 57.5981 32.486V21.2816C57.5981 20.5913 57.0384 20.0316 56.3481 20.0316H6.25172C5.56141 20.0316 5.00172 20.5913 5.00172 21.2816V32.4343C5.00172 34.516 6.69531 36.2096 8.77703 36.2096H25.0911V46.3076H20.0069C20.007 46.2894 20.0083 46.2715 20.0083 46.2532C20.0083 42.1158 16.6427 38.7499 12.5058 38.7499C8.90063 38.7499 5.88187 41.3055 5.16437 44.7001C4.01312 44.3049 2.5 43.4496 2.5 41.6818V21.2426C2.5 19.864 3.62156 18.7426 5 18.7426H65C65.9392 18.7426 66.7583 19.2636 67.1855 20.0316H60.0325C59.3422 20.0316 58.7825 20.5913 58.7825 21.2816V32.4343C58.7825 34.516 60.4761 36.2096 62.5578 36.2096H67.5V37.5055H66.283C65.5927 37.5055 65.033 38.0652 65.033 38.7555C65.033 39.4458 65.5927 40.0055 66.283 40.0055H67.5V46.3076H65.0647Z" fill="#42403F"/>
</svg>
