<svg width="70" height="70" viewBox="0 0 70 70" fill="none" xmlns="http://www.w3.org/2000/svg">
<g clip-path="url(#clip0_731_10052)">
<path d="M29.0469 31.5228H33.7137V33.8567H29.0469V31.5228Z" fill="#42403F"/>
<path d="M68.8825 28.0346L60.957 26.9027C59.5119 26.015 58.0121 25.2202 56.4659 24.5228C51.3594 22.2098 45.8172 21.0163 40.2109 21.0225H38.8341C32.218 21.0272 25.7077 22.6874 19.8968 25.8516L15.897 28.0336C11.215 28.0863 6.62321 29.3316 2.55555 31.6503C0.902468 32.5983 -0.118245 34.3573 -0.121094 36.2625V43.1905C-0.121094 43.8352 0.401132 44.3574 1.04584 44.3574H4.96349C6.23772 47.9926 10.2176 49.9068 13.8527 48.6326C15.8538 47.9314 17.4266 46.358 18.1278 44.3574H49.3C50.5742 47.9926 54.554 49.9068 58.1892 48.6326C60.1898 47.9314 61.7631 46.358 62.4643 44.3574H62.8831C63.0317 44.3574 63.1788 44.3294 63.317 44.2744L67.096 42.758C68.7842 42.0895 69.8899 40.4555 69.8837 38.6405V29.1896C69.8837 28.6095 69.4569 28.1172 68.8825 28.0346ZM16.1187 42.9574C15.6026 45.4826 13.1373 47.1115 10.6121 46.5954C8.08639 46.0794 6.45752 43.614 6.97358 41.0883C7.49011 38.5631 9.95549 36.9342 12.4807 37.4503C14.6536 37.8942 16.2136 39.806 16.2132 42.024C16.2132 42.3374 16.1814 42.6502 16.1187 42.9574ZM37.2147 42.024H18.5466C18.5466 38.1577 15.4127 35.0234 11.5464 35.0234C7.68001 35.0234 4.5457 38.1577 4.5457 42.024H2.21231V36.2625C2.21373 35.1938 2.78628 34.2068 3.71394 33.676C7.52144 31.5021 11.8293 30.358 16.2132 30.3566H37.2147V42.024ZM37.2147 28.0232H20.7893L21.0143 27.9002C26.0025 25.1894 31.5433 23.6526 37.2147 23.4072V28.0232ZM39.5481 23.3559H40.2085C44.9104 23.3507 49.5696 24.2432 53.9369 25.986L51.8997 28.0232H39.5481V23.3559ZM60.4552 42.9574C59.9391 45.4826 57.4737 47.1115 54.9481 46.5954C52.4229 46.0794 50.794 43.614 51.3101 41.0883C51.8261 38.5631 54.292 36.9342 56.8172 37.4503C58.9901 37.8942 60.5501 39.806 60.5497 42.024C60.5497 42.3374 60.5178 42.6502 60.4552 42.9574ZM67.5503 31.523H64.05V33.8569H67.5503V38.6405C67.5532 39.5003 67.0291 40.2741 66.2296 40.5898L62.8831 41.9338C62.8831 41.8265 62.8693 41.7202 62.8622 41.6129C62.855 41.5056 62.8527 41.3798 62.8413 41.263C62.8294 41.1462 62.8061 41.0294 62.7876 40.9131C62.7686 40.7963 62.7549 40.6795 62.7316 40.5737C62.7084 40.4673 62.6742 40.3496 62.6438 40.2385C62.6134 40.1279 62.5901 40.0158 62.555 39.9071C62.5203 39.7989 62.4781 39.6949 62.4387 39.5886C62.3988 39.4827 62.3627 39.373 62.3219 39.2676C62.2811 39.1627 62.226 39.0673 62.1771 38.9681C62.1282 38.8688 62.0803 38.7601 62.0257 38.6599C61.9706 38.5598 61.9089 38.4743 61.8562 38.3813C61.8039 38.2877 61.7399 38.1814 61.6734 38.086C61.6065 37.9901 61.5447 37.9146 61.4806 37.8282C61.4166 37.7418 61.3439 37.6402 61.2694 37.5505C61.1948 37.4607 61.1251 37.3905 61.0524 37.3169C60.9803 37.2438 60.8996 37.1445 60.8193 37.0629C60.7386 36.9812 60.6593 36.9167 60.5791 36.8445C60.4984 36.7723 60.412 36.6869 60.3232 36.6109C60.2349 36.5354 60.1447 36.477 60.0564 36.4106C59.9676 36.3441 59.8788 36.2729 59.7858 36.2107C59.6923 36.149 59.5873 36.0944 59.4872 36.0289C59.3865 35.9634 59.3049 35.9121 59.2104 35.8622C59.1159 35.8119 58.9982 35.7592 58.8909 35.7079C58.7836 35.6567 58.6996 35.6111 58.6003 35.5693C58.5011 35.5271 58.3668 35.4829 58.2504 35.4411C58.1337 35.3989 58.0577 35.3661 57.9585 35.3348C57.8255 35.294 57.6893 35.2645 57.5535 35.2308C57.4647 35.2099 57.3797 35.1819 57.29 35.1634C57.1466 35.134 56.9995 35.1178 56.8537 35.0965C56.7673 35.0851 56.6847 35.0661 56.5983 35.058C56.3647 35.0348 56.1316 35.0219 55.8867 35.0219C52.0217 35.0257 48.8898 38.1577 48.886 42.0226H39.5486V30.3561H52.3825C52.6921 30.3561 52.9888 30.2331 53.2072 30.0143L56.2327 26.9887C57.5027 27.593 58.7375 28.2686 59.9315 29.0121C60.0692 29.098 60.223 29.1545 60.384 29.1778L67.5503 30.2008V31.523Z" fill="#42403F"/>
</g>
<defs>
<clipPath id="clip0_731_10052">
<rect width="70" height="70" fill="white"/>
</clipPath>
</defs>
</svg>
