<svg width="33" height="32" viewBox="0 0 33 32" fill="none" xmlns="http://www.w3.org/2000/svg">
<g clip-path="url(#clip0_31_26)">
<path d="M32.0703 6.375C31.9036 6.20833 31.6953 6.125 31.4453 6.125C31.1953 6.125 30.987 6.20833 30.8203 6.375L12.5703 24C12.4036 24.1667 12.237 24.1667 12.0703 24L3.07031 15.25C2.90365 15.0833 2.69531 15 2.44531 15C2.19531 15 1.98698 15.0833 1.82031 15.25C1.65365 15.4167 1.57031 15.625 1.57031 15.875C1.57031 16.125 1.65365 16.3333 1.82031 16.5L10.8203 25.25C11.237 25.6667 11.737 25.875 12.3203 25.875C12.9036 25.875 13.362 25.6667 13.6953 25.25L31.9453 7.625C32.1953 7.45833 32.3203 7.25 32.3203 7C32.3203 6.75 32.237 6.54167 32.0703 6.375Z" fill="#1B1918"/>
</g>
<defs>
<clipPath id="clip0_31_26">
<rect width="32" height="32" fill="white" transform="translate(0.945312)"/>
</clipPath>
</defs>
</svg>
