<svg width="33" height="32" viewBox="0 0 33 32" fill="none" xmlns="http://www.w3.org/2000/svg">
<g clip-path="url(#clip0_31_23)">
<path d="M16.6651 31.375C13.9151 31.375 11.3524 30.6874 8.97706 29.312C6.60173 27.9367 4.72673 26.0617 3.35206 23.687C1.9774 21.3124 1.28973 18.7497 1.28906 15.999C1.2884 13.2484 1.97606 10.6857 3.35206 8.31105C4.72806 5.93638 6.60306 4.06138 8.97706 2.68605C11.3511 1.31071 13.9137 0.623047 16.6651 0.623047C19.4164 0.623047 21.9791 1.31071 24.3531 2.68605C26.7271 4.06138 28.6021 5.93638 29.9781 8.31105C31.3541 10.6857 32.0417 13.2484 32.0411 15.999C32.0404 18.7497 31.3527 21.3124 29.9781 23.687C28.6034 26.0617 26.7284 27.9367 24.3531 29.312C21.9777 30.6874 19.4151 31.375 16.6651 31.375ZM16.6651 2.37505C14.1651 2.37505 11.8941 3.00005 9.85206 4.25005C7.81006 5.50005 6.16406 7.14605 4.91406 9.18805C3.66406 11.23 3.03906 13.501 3.03906 16.001C3.03906 18.501 3.66406 20.7927 4.91406 22.876C6.16406 24.9594 7.83073 26.6054 9.91406 27.814C11.9974 29.0227 14.2684 29.627 16.7271 29.627C19.1857 29.627 21.4567 29.0227 23.5401 27.814C25.6234 26.6054 27.2694 24.9594 28.4781 22.876C29.6867 20.7927 30.2911 18.5217 30.2911 16.063C30.2911 13.6044 29.6867 11.3334 28.4781 9.25005C27.2694 7.16671 25.6234 5.50005 23.5401 4.25005C21.4567 3.00005 19.1651 2.37505 16.6651 2.37505ZM14.9151 19.5C14.5817 19.5 14.2901 19.375 14.0401 19.125L10.6651 16C10.4984 15.75 10.4151 15.5207 10.4151 15.312C10.4151 15.1034 10.4984 14.895 10.6651 14.687C10.8317 14.479 11.0401 14.3747 11.2901 14.374C11.5401 14.3734 11.7484 14.4984 11.9151 14.749L14.9151 17.624L21.4151 11.499C21.5817 11.3324 21.7694 11.228 21.9781 11.186C22.1867 11.144 22.3951 11.2274 22.6031 11.436C22.8111 11.6447 22.9154 11.853 22.9161 12.061C22.9167 12.269 22.8334 12.4984 22.6661 12.749L15.9161 19.249C15.5827 19.4157 15.2494 19.499 14.9161 19.499L14.9151 19.5Z" fill="#1B1918"/>
</g>
<defs>
<clipPath id="clip0_31_23">
<rect width="32" height="32" fill="white" transform="translate(0.666016)"/>
</clipPath>
</defs>
</svg>
