<svg width="35" height="36" viewBox="0 0 35 36" fill="none" xmlns="http://www.w3.org/2000/svg">
<rect x="1" y="1.3335" width="33" height="33" rx="16.5" stroke="#42403F" stroke-width="2"/>
<path d="M14.1414 20.8495L17.3054 17.8115C17.6134 17.5128 17.8747 17.2515 18.0894 17.0275C18.304 16.8035 18.472 16.5982 18.5934 16.4115C18.724 16.2248 18.8174 16.0522 18.8734 15.8935C18.9294 15.7348 18.9574 15.5715 18.9574 15.4035C18.9574 14.9648 18.822 14.6148 18.5514 14.3535C18.2807 14.0922 17.9074 13.9615 17.4314 13.9615C16.9554 13.9615 16.582 14.1015 16.3114 14.3815C16.0407 14.6522 15.9054 15.0395 15.9054 15.5435H14.1414C14.1414 15.0675 14.216 14.6335 14.3654 14.2415C14.5147 13.8495 14.7294 13.5182 15.0094 13.2475C15.2987 12.9768 15.644 12.7668 16.0454 12.6175C16.456 12.4682 16.918 12.3935 17.4314 12.3935C17.9447 12.3935 18.402 12.4682 18.8034 12.6175C19.214 12.7575 19.5594 12.9628 19.8394 13.2335C20.1287 13.4948 20.348 13.8122 20.4974 14.1855C20.6467 14.5495 20.7214 14.9555 20.7214 15.4035C20.7214 15.9542 20.544 16.4955 20.1894 17.0275C19.8347 17.5595 19.284 18.1662 18.5374 18.8475L16.3394 20.8495H20.7214V22.3335H14.1414V20.8495Z" fill="#42403F"/>
</svg>
