<svg width="35" height="35" viewBox="0 0 35 35" fill="none" xmlns="http://www.w3.org/2000/svg">
<rect x="1" y="1" width="33" height="33" rx="16.5" stroke="#42403F" stroke-width="2"/>
<path d="M17.4295 22.14C16.3281 22.14 15.4741 21.846 14.8675 21.258C14.2608 20.6607 13.9481 19.8113 13.9295 18.71H15.6935C15.7121 19.354 15.8661 19.8253 16.1555 20.124C16.4448 20.4227 16.8695 20.572 17.4295 20.572C18.0081 20.572 18.4421 20.4413 18.7315 20.18C19.0208 19.9093 19.1655 19.5453 19.1655 19.088C19.1655 18.6867 19.0255 18.3553 18.7455 18.094C18.4748 17.8327 18.0688 17.702 17.5275 17.702H16.2395V16.218H17.5275C17.9755 16.218 18.3255 16.1013 18.5775 15.868C18.8295 15.6347 18.9555 15.3313 18.9555 14.958C18.9555 14.5567 18.8248 14.2347 18.5635 13.992C18.3115 13.7493 17.9335 13.628 17.4295 13.628C16.4961 13.628 15.9875 14.1553 15.9035 15.21H14.1395C14.1581 14.2207 14.4521 13.4507 15.0215 12.9C15.6001 12.34 16.4028 12.06 17.4295 12.06C17.9708 12.06 18.4468 12.13 18.8575 12.27C19.2681 12.4007 19.6088 12.592 19.8795 12.844C20.1595 13.0867 20.3695 13.3807 20.5095 13.726C20.6495 14.062 20.7195 14.4353 20.7195 14.846C20.7195 15.294 20.6215 15.7 20.4255 16.064C20.2295 16.428 19.9261 16.722 19.5155 16.946C19.9915 17.1793 20.3461 17.492 20.5795 17.884C20.8128 18.276 20.9295 18.7193 20.9295 19.214C20.9295 19.6527 20.8548 20.0493 20.7055 20.404C20.5561 20.7587 20.3321 21.0667 20.0335 21.328C19.7441 21.5893 19.3801 21.79 18.9415 21.93C18.5121 22.07 18.0081 22.14 17.4295 22.14Z" fill="#42403F"/>
</svg>
