<svg width="35" height="36" viewBox="0 0 35 36" fill="none" xmlns="http://www.w3.org/2000/svg">
<rect x="1" y="1.66675" width="33" height="33" rx="16.5" fill="#00834B"/>
<rect x="1" y="1.66675" width="33" height="33" rx="16.5" stroke="#00834B" stroke-width="2"/>
<g clip-path="url(#clip0_733_3082)">
<path d="M24.1172 13.3542C24.0443 13.2709 23.9531 13.2292 23.8438 13.2292C23.7344 13.2292 23.6432 13.2709 23.5703 13.3542L15.5859 22.1667C15.513 22.2501 15.4401 22.2501 15.3672 22.1667L11.4297 17.7917C11.3568 17.7084 11.2656 17.6667 11.1562 17.6667C11.0469 17.6667 10.9557 17.7084 10.8828 17.7917C10.8099 17.8751 10.7734 17.9792 10.7734 18.1042C10.7734 18.2292 10.8099 18.3334 10.8828 18.4167L14.8203 22.7917C15.0026 23.0001 15.2214 23.1042 15.4766 23.1042C15.7318 23.1042 15.9323 23.0001 16.0781 22.7917L24.0625 13.9792C24.1719 13.8959 24.2266 13.7917 24.2266 13.6667C24.2266 13.5417 24.1901 13.4376 24.1172 13.3542Z" fill="white"/>
</g>
<defs>
<clipPath id="clip0_733_3082">
<rect width="14" height="16" fill="white" transform="translate(10.5 10.1667)"/>
</clipPath>
</defs>
</svg>
