<svg width="33" height="32" viewBox="0 0 33 32" fill="none" xmlns="http://www.w3.org/2000/svg">
<path d="M26.9688 9.5H21.4688V9.375C21.4688 8.54167 21.1771 7.83333 20.5938 7.25C20.0104 6.66667 19.3021 6.375 18.4688 6.375H4.21875C3.30208 6.375 2.55208 6.66667 1.96875 7.25C1.38542 7.83333 1.09375 8.54167 1.09375 9.375V20.5C1.09375 21.3333 1.40642 22.0417 2.03175 22.625C2.65708 23.2083 3.38642 23.5 4.21975 23.5H7.84475C8.09475 24.1667 8.49075 24.6877 9.03275 25.063C9.57475 25.4383 10.1791 25.626 10.8457 25.626C11.5124 25.626 12.1167 25.4383 12.6587 25.063C13.2007 24.6877 13.5968 24.1667 13.8468 23.5H22.7218C22.9718 24.1667 23.3678 24.6877 23.9097 25.063C24.4517 25.4383 25.0561 25.626 25.7227 25.626C26.3894 25.626 27.0144 25.4383 27.5977 25.063C28.1811 24.6877 28.5561 24.1667 28.7227 23.5H30.9727C31.2227 23.5 31.4311 23.4167 31.5977 23.25C31.7644 23.0833 31.8477 22.875 31.8477 22.625V14.375C31.8477 13.0417 31.3684 11.8957 30.4097 10.937C29.4511 9.97833 28.3051 9.499 26.9718 9.499L26.9688 9.5ZM2.84375 20.5V9.5C2.84375 9.08333 2.96875 8.75 3.21875 8.5C3.46875 8.25 3.80208 8.125 4.21875 8.125H18.4688C18.8021 8.125 19.0938 8.25 19.3438 8.5C19.5938 8.75 19.7188 9.08333 19.7188 9.5V21.875H13.9688C13.8854 21.125 13.5311 20.479 12.9058 19.937C12.2804 19.395 11.5721 19.124 10.7808 19.124C9.98942 19.124 9.30175 19.374 8.71775 19.874C8.13375 20.374 7.75875 21.0407 7.59275 21.874H4.21775C3.80108 21.874 3.46775 21.749 3.21775 21.499C2.96775 21.249 2.84275 20.9157 2.84275 20.499L2.84375 20.5ZM10.8438 23.875C10.4271 23.875 10.0728 23.729 9.78075 23.437C9.48875 23.145 9.34275 22.7907 9.34275 22.374C9.34275 21.9573 9.48875 21.603 9.78075 21.311C10.0728 21.019 10.4271 20.873 10.8438 20.873C11.2604 20.873 11.6147 21.019 11.9067 21.311C12.1987 21.603 12.3448 21.9573 12.3448 22.374C12.3448 22.7907 12.1987 23.145 11.9067 23.437C11.6147 23.729 11.2604 23.875 10.8438 23.875ZM25.8438 23.875C25.4271 23.875 25.0728 23.729 24.7808 23.437C24.4888 23.145 24.3428 22.7907 24.3428 22.374C24.3428 21.9573 24.4888 21.603 24.7808 21.311C25.0728 21.019 25.4271 20.873 25.8438 20.873C26.2604 20.873 26.6147 21.019 26.9067 21.311C27.1987 21.603 27.3237 21.9573 27.2817 22.374C27.2397 22.7907 27.0938 23.145 26.8438 23.437C26.5938 23.729 26.2604 23.875 25.8438 23.875ZM30.0938 21.875H28.9688C28.8021 21.125 28.4271 20.479 27.8438 19.937C27.2604 19.395 26.5728 19.124 25.7808 19.124C24.9888 19.124 24.3011 19.374 23.7178 19.874C23.1344 20.374 22.7594 21.0407 22.5928 21.874H21.4678V11.249H26.9678C27.8011 11.249 28.5094 11.5407 29.0928 12.124C29.6761 12.7073 29.9678 13.4157 29.9678 14.249V21.874H30.0928L30.0938 21.875ZM6.09375 12H10.8438C11.0938 12 11.3021 11.8957 11.4688 11.687C11.6354 11.4783 11.7188 11.249 11.7188 10.999C11.7188 10.749 11.6354 10.5407 11.4688 10.374C11.3021 10.2073 11.0938 10.124 10.8438 10.124H6.09375C5.84375 10.124 5.63542 10.2073 5.46875 10.374C5.30208 10.5407 5.21875 10.749 5.21875 10.999C5.21875 11.249 5.30208 11.4783 5.46875 11.687C5.63542 11.8957 5.84375 12 6.09375 12ZM9.34375 15.625C9.59375 15.625 9.80208 15.5417 9.96875 15.375C10.1354 15.2083 10.2188 15 10.2188 14.75C10.2188 14.5 10.1354 14.2707 9.96875 14.062C9.80208 13.8533 9.59375 13.749 9.34375 13.749H6.09375C5.84375 13.749 5.63542 13.8533 5.46875 14.062C5.30208 14.2707 5.21875 14.5 5.21875 14.75C5.21875 15 5.30208 15.2083 5.46875 15.375C5.63542 15.5417 5.84375 15.625 6.09375 15.625H9.34375Z" fill="#1B1918"/>
</svg>
