<svg width="33" height="32" viewBox="0 0 33 32" fill="none" xmlns="http://www.w3.org/2000/svg">
<path d="M15.5322 19.75C15.3656 19.9167 15.2822 20.125 15.2822 20.375C15.2822 20.625 15.3656 20.8333 15.5322 21C15.6989 21.1667 15.9072 21.25 16.1572 21.25C16.4072 21.25 16.6156 21.1667 16.7822 21L20.4072 17.25C20.7406 16.9167 20.9072 16.5207 20.9072 16.062C20.9072 15.6033 20.7406 15.249 20.4072 14.999L16.7822 11.249C16.6156 11.0823 16.4072 10.999 16.1572 10.999C15.9072 10.999 15.6989 11.0823 15.5322 11.249C15.3656 11.4157 15.2822 11.624 15.2822 11.874C15.2822 12.124 15.3656 12.3323 15.5322 12.499L18.4072 15.499H5.65725C5.40725 15.499 5.17792 15.5823 4.96925 15.749C4.76058 15.9157 4.65625 16.124 4.65625 16.374C4.65625 16.624 4.76058 16.8323 4.96925 16.999C5.17792 17.1657 5.40725 17.249 5.65725 17.249H18.1572L15.5322 19.75ZM23.2822 0.625H17.4072C16.8239 0.625 16.3239 0.854333 15.9072 1.313C15.4906 1.77167 15.2822 2.29267 15.2822 2.876V7.501C15.2822 7.751 15.3656 7.95933 15.5322 8.126C15.6989 8.29267 15.9072 8.376 16.1572 8.376C16.4072 8.376 16.6156 8.29267 16.7822 8.126C16.9489 7.95933 17.0322 7.751 17.0322 7.501V2.751C17.0322 2.66767 17.0739 2.58433 17.1572 2.501C17.2406 2.41767 17.3656 2.376 17.5322 2.376H23.4072C24.0739 2.376 24.6572 2.626 25.1572 3.126C25.6572 3.626 25.9072 4.20933 25.9072 4.876V27.001C25.9072 27.751 25.6572 28.3553 25.1572 28.814C24.6572 29.2727 24.0739 29.502 23.4072 29.502H17.4072C17.3239 29.502 17.2406 29.4603 17.1572 29.377C17.0739 29.2937 17.0322 29.2103 17.0322 29.127V24.502C17.0322 24.252 16.9489 24.0437 16.7822 23.877C16.6156 23.7103 16.4072 23.627 16.1572 23.627C15.9072 23.627 15.6779 23.7103 15.4692 23.877C15.2606 24.0437 15.1562 24.252 15.1562 24.502V29.127C15.1562 29.7103 15.3856 30.2103 15.8442 30.627C16.3029 31.0437 16.8239 31.252 17.4072 31.252H23.2822C24.4489 31.252 25.4489 30.856 26.2822 30.064C27.1156 29.272 27.5322 28.251 27.5322 27.001V4.876C27.5322 3.70933 27.1156 2.70933 26.2822 1.876C25.4489 1.04267 24.4489 0.626 23.2822 0.626V0.625Z" fill="#1B1918"/>
</svg>
