<svg width="33" height="32" viewBox="0 0 33 32" fill="none" xmlns="http://www.w3.org/2000/svg">
<g clip-path="url(#clip0_31_14)">
<path d="M23.5938 10.25C23.5938 10 23.5104 9.79169 23.3438 9.62502C23.1771 9.45836 22.9688 9.37502 22.7188 9.37502H3.71875L6.46875 6.00002C6.63542 5.83336 6.69808 5.64569 6.65675 5.43702C6.61542 5.22836 6.51108 5.04069 6.34375 4.87402C6.17642 4.70736 5.96808 4.62402 5.71875 4.62402C5.46942 4.62402 5.26108 4.74902 5.09375 4.99902L1.09375 9.74902C0.927083 9.99902 0.927083 10.2907 1.09375 10.624C1.26042 10.9574 1.51042 11.124 1.84375 11.124H22.7188C22.9688 11.124 23.1771 11.0407 23.3438 10.874C23.5104 10.7074 23.5938 10.499 23.5938 10.249V10.25ZM31.5938 21.375C31.4271 21.0417 31.1771 20.875 30.8438 20.875H9.96875C9.71875 20.875 9.51042 20.9584 9.34375 21.125C9.17708 21.2917 9.09375 21.5 9.09375 21.75C9.09375 22 9.17708 22.2294 9.34375 22.438C9.51042 22.6467 9.71875 22.751 9.96875 22.751H28.9688L26.2188 26.001C26.0521 26.1677 25.9894 26.376 26.0308 26.626C26.0721 26.876 26.1764 27.0844 26.3438 27.251C26.5111 27.4177 26.7194 27.501 26.9688 27.501C27.2181 27.501 27.4264 27.376 27.5938 27.126L31.5938 22.376C31.7604 22.0427 31.7604 21.7094 31.5938 21.376V21.375Z" fill="#1B1918"/>
</g>
<defs>
<clipPath id="clip0_31_14">
<rect width="32" height="32" fill="white" transform="translate(0.34375)"/>
</clipPath>
</defs>
</svg>
