<svg width="32" height="32" viewBox="0 0 32 32" fill="none" xmlns="http://www.w3.org/2000/svg">
<g clip-path="url(#clip0_733_3175)">
<path d="M18.1606 31.9375H13.0261C12.1685 31.9375 11.4708 31.2412 11.4708 30.3853V18.8267H8.47521C7.61757 18.8267 6.91992 18.1301 6.91992 17.2744V12.3215C6.91992 11.4656 7.61757 10.7693 8.47521 10.7693H11.4708V8.28906C11.4708 5.82983 12.2445 3.73755 13.7081 2.23877C15.1782 0.733154 17.2328 -0.0625 19.6496 -0.0625L23.5655 -0.0561524C24.4216 -0.0546875 25.1181 0.641602 25.1181 1.49609V6.09473C25.1181 6.95068 24.4207 7.64697 23.5633 7.64697L20.9268 7.64795C20.1227 7.64795 19.918 7.80884 19.8742 7.85816C19.802 7.93994 19.7162 8.17114 19.7162 8.80957V10.769H23.3651C23.6398 10.769 23.906 10.8367 24.1347 10.9641C24.6281 11.2393 24.9348 11.7595 24.9348 12.3218L24.9329 17.2747C24.9329 18.1301 24.2352 18.8264 23.3776 18.8264H19.7162V30.3853C19.7162 31.2412 19.0183 31.9375 18.1606 31.9375ZM13.3505 30.0615H17.8363V17.9868C17.8363 17.4153 18.3023 16.9504 18.8747 16.9504H23.0532L23.055 12.6453H18.8744C18.302 12.6453 17.8363 12.1804 17.8363 11.6089V8.80957C17.8363 8.07666 17.9109 7.24317 18.4652 6.6167C19.1349 5.85938 20.1905 5.77197 20.9263 5.77197L23.2384 5.771V1.81934L19.6482 1.81348C15.7641 1.81348 13.3505 4.29492 13.3505 8.28906V11.6089C13.3505 12.1802 12.8847 12.6453 12.3123 12.6453H8.79957V16.9504H12.3123C12.8847 16.9504 13.3505 17.4153 13.3505 17.9868V30.0615ZM23.5618 1.81982H23.562H23.5618Z" fill="white"/>
</g>
<defs>
<clipPath id="clip0_733_3175">
<rect width="32" height="32" fill="white"/>
</clipPath>
</defs>
</svg>
