<svg width="32" height="33" viewBox="0 0 32 33" fill="none" xmlns="http://www.w3.org/2000/svg">
<path d="M18.125 20.25C18.7083 19.6667 19 18.9167 19 18C19 17.0833 18.7083 16.3333 18.125 15.75C17.5417 15.1667 16.8123 14.875 15.937 14.875C15.0617 14.875 14.3323 15.1667 13.749 15.75C13.1657 16.3333 12.874 17.0833 12.874 18C12.874 18.9167 13.1657 19.6667 13.749 20.25C13.0823 20.5833 12.5407 21 12.124 21.5C11.124 22.75 10.624 24.2083 10.624 25.875C10.624 26.2083 10.8323 26.4793 11.249 26.688C11.6657 26.8967 12.2073 27.126 12.874 27.376C13.9573 27.7093 14.999 27.876 15.999 27.876C17.6657 27.876 19.2907 27.4593 20.874 26.626C21.124 26.4593 21.249 26.1677 21.249 25.751C21.249 24.001 20.749 22.5843 19.749 21.501C19.1657 20.9177 18.624 20.501 18.124 20.251L18.125 20.25ZM16 16.625C16.4167 16.625 16.75 16.75 17 17C17.25 17.25 17.375 17.5627 17.375 17.938C17.375 18.3133 17.25 18.626 17 18.876C16.75 19.126 16.4373 19.251 16.062 19.251C15.6867 19.251 15.3533 19.126 15.062 18.876C14.7707 18.626 14.6247 18.3133 14.624 17.938C14.6233 17.5627 14.7483 17.25 14.999 17C15.2497 16.75 15.583 16.625 15.999 16.625H16ZM16 26.125C15 26.125 13.8333 25.875 12.5 25.375C12.5833 24.2917 12.9377 23.375 13.563 22.625C14.1883 21.875 14.98 21.5 15.938 21.5C16.896 21.5 17.6877 21.875 18.313 22.625C18.9383 23.375 19.3343 24.2917 19.501 25.375C19.0843 25.5417 18.5633 25.7083 17.938 25.875C17.3127 26.0417 16.6667 26.125 16 26.125ZM26.625 10.625L17.25 1.75C16.8333 1.33333 16.25 1.125 15.5 1.125H7.5C6.75 1.125 6.08333 1.41667 5.5 2C4.91667 2.58333 4.625 3.25 4.625 4V28.875C4.625 29.7083 4.91667 30.396 5.5 30.938C6.08333 31.48 6.75 31.751 7.5 31.751H24.5C25.25 31.751 25.9167 31.4593 26.5 30.876C27.0833 30.2927 27.375 29.626 27.375 28.876V12.376C27.375 11.626 27.125 11.0427 26.625 10.626V10.625ZM16.875 3.75L24.5 10.875H17.625C17.4583 10.875 17.2917 10.8123 17.125 10.687C16.9583 10.5617 16.875 10.4157 16.875 10.249V3.749V3.75ZM24.5 30.125H7.5C7.25 30.125 7 30.0207 6.75 29.812C6.5 29.6033 6.375 29.3323 6.375 28.999V4.124C6.375 3.79067 6.5 3.499 6.75 3.249C7 2.999 7.25 2.874 7.5 2.874H15.125V10.249C15.125 10.9157 15.375 11.4783 15.875 11.937C16.375 12.3957 16.9583 12.625 17.625 12.625H25.75V28.875C25.6667 29.2083 25.5207 29.5 25.312 29.75C25.1033 30 24.8323 30.125 24.499 30.125H24.5Z" fill="#A40731"/>
</svg>
