<svg width="33" height="32" viewBox="0 0 33 32" fill="none" xmlns="http://www.w3.org/2000/svg">
<path d="M16.3867 29.75C15.7201 29.75 15.1367 29.5 14.6367 29L11.2617 26.125C9.34505 24.5417 8.01172 23.375 7.26172 22.625C5.92839 21.4584 4.88672 20.4167 4.13672 19.5C2.05339 17 1.01172 14.4584 1.01172 11.875C1.01172 10.625 1.22005 9.41669 1.63672 8.25002C2.05339 7.08336 2.67839 6.04169 3.51172 5.12502C4.34505 4.20836 5.32439 3.52069 6.44972 3.06202C7.57505 2.60336 8.76272 2.37402 10.0127 2.37402C11.8461 2.37402 13.5544 2.95736 15.1377 4.12402C15.6377 4.54069 16.0544 4.91569 16.3877 5.24902C16.7211 4.91569 17.1377 4.54069 17.6377 4.12402C19.2211 2.95736 20.9294 2.37402 22.7627 2.37402C25.3461 2.37402 27.5127 3.29069 29.2627 5.12402C30.0961 6.04069 30.7211 7.08236 31.1377 8.24902C31.5544 9.41569 31.7627 10.624 31.7627 11.874C31.7627 14.4574 30.7211 16.999 28.6377 19.499C27.8877 20.4157 26.8461 21.4574 25.5127 22.624C24.7627 23.374 23.4294 24.5407 21.5127 26.124L18.1377 28.999C17.6377 29.499 17.0544 29.749 16.3877 29.749L16.3867 29.75ZM10.0117 4.00002C9.01172 4.00002 8.05339 4.20836 7.13672 4.62502C6.22005 5.04169 5.47005 5.58336 4.88672 6.25002C3.47005 7.75002 2.76172 9.58336 2.76172 11.75C2.76172 13.9167 3.63672 16.0834 5.38672 18.25C6.13672 19.1667 7.17839 20.2084 8.51172 21.375C9.26172 22.125 10.5534 23.25 12.3867 24.75L15.8867 27.75C15.9701 27.8334 16.1367 27.875 16.3867 27.875C16.6367 27.875 16.8034 27.8334 16.8867 27.75L20.3867 24.75C22.2201 23.25 23.5117 22.125 24.2617 21.375C25.5951 20.2084 26.6367 19.1667 27.3867 18.25C29.1367 16.0834 30.0117 13.9374 30.0117 11.812C30.0117 9.68669 29.3241 7.85336 27.9487 6.31202C26.5734 4.77069 24.8441 3.99969 22.7607 3.99902C21.2607 3.99902 19.9274 4.49902 18.7607 5.49902C18.4274 5.66569 18.0107 6.08236 17.5107 6.74902H17.3857C17.1357 7.08236 16.8024 7.24902 16.3857 7.24902C15.9691 7.24902 15.6357 7.08236 15.3857 6.74902C14.8857 6.24902 14.4274 5.83236 14.0107 5.49902C12.7607 4.49902 11.4274 3.99902 10.0107 3.99902L10.0117 4.00002Z" fill="#1B1918"/>
</svg>
