<svg width="33" height="32" viewBox="0 0 33 32" fill="none" xmlns="http://www.w3.org/2000/svg">
<g clip-path="url(#clip0_31_31)">
<path d="M31.2197 22.5H29.5947V13.75C29.5947 13.25 29.4697 12.7917 29.2197 12.375C28.9697 11.9583 28.5947 11.625 28.0947 11.375L22.3447 8.125C21.9281 7.875 21.4697 7.75 20.9697 7.75C20.4697 7.75 20.0114 7.875 19.5947 8.125L12.8448 11.75H6.71975C5.96975 11.75 5.32375 12.0417 4.78175 12.625C4.23975 13.2083 3.96875 13.875 3.96875 14.625V22.5H2.21875C1.96875 22.5 1.76042 22.6043 1.59375 22.813C1.42708 23.0217 1.34375 23.251 1.34375 23.501C1.34375 23.751 1.42708 23.9387 1.59375 24.064C1.76042 24.1893 1.96875 24.252 2.21875 24.252H31.2188C31.4688 24.252 31.6771 24.1687 31.8438 24.002C32.0104 23.8353 32.0938 23.627 32.0938 23.377C32.0938 23.127 32.0104 22.9187 31.8438 22.752C31.6771 22.5853 31.4688 22.502 31.2188 22.502L31.2197 22.5ZM5.71975 14.625C5.71975 14.2917 5.80308 14.0207 5.96975 13.812C6.13642 13.6033 6.38642 13.499 6.71975 13.499H12.2198V22.499H5.71975V14.624V14.625ZM13.9698 13.125L20.4697 9.5C20.8031 9.33333 21.1364 9.33333 21.4697 9.5L27.3447 12.75C27.6781 13 27.8447 13.3333 27.8447 13.75V22.5H23.9697V18.5C23.9697 17.8333 23.7404 17.25 23.2817 16.75C22.8231 16.25 22.2604 16 21.5938 16H20.3438C19.6771 16 19.1144 16.25 18.6558 16.75C18.1971 17.25 17.9677 17.8333 17.9677 18.5V22.5H13.9678V13.125H13.9698ZM19.7197 22.5V18.5C19.7197 18.3333 19.7824 18.1873 19.9077 18.062C20.0331 17.9367 20.1791 17.874 20.3457 17.874H21.5957C21.7624 17.874 21.9084 17.9367 22.0337 18.062C22.1591 18.1873 22.2218 18.3333 22.2218 18.5V22.5H19.7218H19.7197Z" fill="#1B1918"/>
</g>
<defs>
<clipPath id="clip0_31_31">
<rect width="32" height="32" fill="white" transform="translate(0.71875)"/>
</clipPath>
</defs>
</svg>
