<svg width="32" height="32" viewBox="0 0 32 32" fill="none" xmlns="http://www.w3.org/2000/svg">
<g clip-path="url(#clip0_733_3178)">
<path d="M23.3378 0H8.66209C3.88573 0 0 3.88573 0 8.66209V23.3381C0 28.1142 3.88573 31.9999 8.66209 31.9999H23.3381C28.1142 31.9999 31.9999 28.1142 31.9999 23.3381V8.66209C31.9999 3.88573 28.1142 0 23.3378 0V0ZM30.124 23.3381C30.124 27.0798 27.0798 30.124 23.3378 30.124H8.66209C4.92016 30.124 1.87597 27.0798 1.87597 23.3381V8.66209C1.87597 4.92016 4.92016 1.87597 8.66209 1.87597H23.3381C27.0798 1.87597 30.124 4.92016 30.124 8.66209V23.3381Z" fill="white"/>
<path d="M15.9997 7.25024C11.175 7.25024 7.25 11.1753 7.25 16C7.25 20.8247 11.175 24.7497 15.9997 24.7497C20.8244 24.7497 24.7495 20.8247 24.7495 16C24.7495 11.1753 20.8244 7.25024 15.9997 7.25024ZM15.9997 22.8737C12.2097 22.8737 9.12597 19.7903 9.12597 16C9.12597 12.21 12.2097 9.12622 15.9997 9.12622C19.79 9.12622 22.8735 12.21 22.8735 16C22.8735 19.7903 19.79 22.8737 15.9997 22.8737Z" fill="white"/>
<path d="M24.9585 4.14282C23.5327 4.14282 22.373 5.30273 22.373 6.72827C22.373 8.15405 23.5327 9.31395 24.9585 9.31395C26.3843 9.31395 27.5442 8.15405 27.5442 6.72827C27.5442 5.30249 26.3843 4.14282 24.9585 4.14282ZM24.9585 7.43774C24.5674 7.43774 24.249 7.11938 24.249 6.72827C24.249 6.33691 24.5674 6.0188 24.9585 6.0188C25.3498 6.0188 25.6682 6.33691 25.6682 6.72827C25.6682 7.11938 25.3498 7.43774 24.9585 7.43774Z" fill="white"/>
</g>
<defs>
<clipPath id="clip0_733_3178">
<rect width="32" height="32" fill="white"/>
</clipPath>
</defs>
</svg>
