<svg width="32" height="32" viewBox="0 0 32 32" fill="none" xmlns="http://www.w3.org/2000/svg">
<g clip-path="url(#clip0_36_181)">
<path d="M31.9751 15.2375C31.9688 13.9624 30.9312 12.925 29.6499 12.925L21.7876 12.9438L21.7625 4.4375C21.7563 3.1626 20.7188 2.125 19.4438 2.125L12.1812 2.1438L8.1626 2.15625C7.98755 2.15625 7.81885 2.2251 7.69385 2.3501C7.56885 2.4751 7.5 2.6438 7.5 2.81885C7.5 3.18115 7.80005 3.4751 8.1626 3.4751L12.1812 3.4624L19.4375 3.44385C19.9875 3.44385 20.4312 3.88745 20.4312 4.4375L20.4563 13.7C20.4563 13.9688 20.3562 14.2188 20.1687 14.4062C19.9812 14.5938 19.7312 14.7 19.4624 14.7L10.125 14.7312C9.93115 14.7312 9.75 14.8125 9.625 14.9624L7.5 17.425L5.1001 14.9438C4.9751 14.8125 4.80005 14.7375 4.625 14.7437L2.3501 14.75C2.0874 14.75 1.8374 14.6499 1.6499 14.4624C1.4624 14.2749 1.3562 14.0249 1.3562 13.7563L1.32495 4.49365C1.32495 4.2251 1.42505 3.9751 1.61255 3.7876C1.80005 3.6001 2.05005 3.49365 2.31885 3.49365H3.1875C3.55005 3.49365 3.8501 3.19385 3.84375 2.8313C3.84375 2.65625 3.7749 2.48755 3.6438 2.36255C3.5188 2.23755 3.3501 2.1687 3.17505 2.17505H2.3125C1.69385 2.17505 1.11255 2.4187 0.675049 2.8562C0.237549 3.30005 0 3.88135 0 4.5L0.0249024 13.7625C0.0249024 14.3813 0.268799 14.9624 0.712402 15.3999C1.1499 15.8313 1.7312 16.075 2.34375 16.075H2.3562L4.3501 16.0688L7.05615 18.8687C7.18115 18.9937 7.3562 19.0688 7.53125 19.0688H7.55005C7.73755 19.0625 7.9126 18.9812 8.03125 18.8374L10.4312 16.05L12.8625 16.0437L12.8687 24.55C12.8687 25.1687 13.1125 25.75 13.55 26.1875C13.9875 26.625 14.5688 26.8625 15.1875 26.8625L21.6125 26.8438L24.0312 29.6187C24.1499 29.7563 24.3313 29.8438 24.5125 29.8438H24.5249C24.7063 29.8438 24.8813 29.7688 25 29.6375L27.6938 26.825L29.6875 26.8188C30.3062 26.8188 30.8875 26.575 31.325 26.1375C31.7625 25.7 32 25.1125 32 24.4937L31.9751 15.2375ZM30.675 24.5063C30.675 24.7749 30.575 25.0249 30.3875 25.2124C30.2 25.3999 29.95 25.5063 29.6812 25.5063L27.4062 25.5125C27.2251 25.5125 27.0562 25.5874 26.9312 25.7188L24.5437 28.2124L22.3999 25.7563C22.2749 25.6125 22.0938 25.5312 21.9062 25.5312H21.8999L15.1875 25.5437C14.925 25.5437 14.675 25.4438 14.4875 25.2563C14.3 25.0688 14.1938 24.8188 14.1938 24.5562L14.1875 16.0437L19.4812 16.0312C20.55 16.0312 21.4688 15.3062 21.7251 14.2749L29.6626 14.25C30.2124 14.25 30.6562 14.6938 30.6562 15.2437L30.675 24.5063Z" fill="black"/>
<path d="M5.51254 3.4809L5.52499 3.48724C5.58749 3.50604 5.64999 3.51215 5.71249 3.51215C6.00009 3.51215 6.26254 3.31854 6.34384 3.0434C6.45004 2.69354 6.25009 2.32465 5.89999 2.21844L5.88754 2.2121C5.53768 2.1059 5.16879 2.30585 5.06259 2.65594C4.96884 3.00604 5.16268 3.37469 5.51254 3.4809Z" fill="black"/>
<path d="M8.97974 12.9998C9.28613 12.9998 9.46729 12.8936 9.52979 12.6809L9.86719 11.4373H11.9609L12.2986 12.6809C12.3547 12.8936 12.5422 12.9998 12.8486 12.9998C13.0923 12.9998 13.3235 12.9309 13.5486 12.7998C13.7798 12.6685 13.8923 12.4998 13.8923 12.3186C13.8923 12.2935 13.886 12.2561 13.8735 12.1997L11.9736 6.0061C11.9172 5.83105 11.7861 5.6936 11.5859 5.59351C11.3923 5.49976 11.1611 5.45605 10.9048 5.45605C10.6484 5.45605 10.4236 5.5061 10.2236 5.59351C10.0234 5.68726 9.89233 5.82471 9.83594 6.0061L7.94849 12.2061C7.93604 12.2622 7.92969 12.2998 7.92969 12.3247C7.92969 12.5122 8.04858 12.6748 8.27344 12.8059C8.49854 12.9309 8.73608 12.9998 8.97974 12.9998ZM10.2048 10.156L10.9048 7.58105L11.6047 10.156H10.2048Z" fill="black"/>
<path d="M24.4287 19.125C24.4414 19.0063 24.4038 18.8999 24.3289 18.8062C24.2039 18.6687 23.9727 18.5813 23.71 18.5813C23.4414 18.5813 23.2725 18.6938 23.1975 18.9312C22.7976 18.9312 22.4226 18.9688 22.0664 19.0437C22.0725 18.8438 22.0789 18.7063 22.0913 18.55C22.135 18.55 22.1787 18.5437 22.2288 18.5437C22.335 18.5376 22.46 18.5312 22.6226 18.5188C22.7788 18.5063 22.9663 18.4875 23.1726 18.4624C23.3975 18.4375 23.635 18.4126 23.8538 18.3999C24.6726 18.3188 24.9351 18.1499 24.9351 17.6938C24.9351 17.3374 24.7227 17.0938 24.4226 17.0938C24.3662 17.0938 24.3037 17.0937 24.1726 17.1187L24.0601 17.1375C23.3164 17.25 22.9727 17.3062 22.1975 17.3562C22.2227 17.1562 22.2412 16.9624 22.2412 16.8438C22.2412 16.5188 22.0288 16.3374 21.6414 16.3374C21.1475 16.3437 21.0039 16.5562 20.9287 17.4062H20.6538C20.5601 17.4062 20.4226 17.4062 20.2913 17.3999C20.1602 17.3999 20.0288 17.3938 19.9414 17.3938C19.5225 17.3938 19.3538 17.5562 19.3538 17.9812C19.3538 18.6125 19.7163 18.6125 20.4475 18.6125C20.5789 18.6125 20.7227 18.6125 20.8662 18.6001V18.625C20.8538 18.9062 20.8413 19.1687 20.835 19.4624C19.635 20.0688 18.9727 20.9875 18.9727 22.0562C18.9727 23 19.4663 23.5376 20.335 23.5376C20.6602 23.5376 20.9287 23.4751 21.2788 23.325C21.385 23.4937 21.5039 23.5562 21.7163 23.5562C22.1475 23.5562 22.4663 23.3062 22.4663 22.9812C22.4663 22.875 22.4414 22.75 22.385 22.5874C22.9727 22.05 23.585 21.175 24.0352 20.2375C24.4287 20.4126 24.6475 20.7625 24.6475 21.2251C24.6475 22.1062 23.9102 22.3999 23.4226 22.5938L23.4102 22.6001C23.1475 22.7 23.01 22.8999 23.01 23.175C23.01 23.5437 23.3101 23.8501 23.6726 23.8501C24.1538 23.8501 25.9351 23.1875 25.9351 21.2063C25.9475 20.1875 25.3914 19.4312 24.4287 19.125ZM22.8289 20.0437C22.6914 20.3813 22.4038 20.8501 22.1162 21.2063C22.0913 20.9563 22.0537 20.4688 22.0537 20.1938C22.3101 20.1187 22.5601 20.0688 22.8289 20.0437ZM20.8662 20.8C20.8914 21.25 20.9351 21.7 21.0039 22.1313C20.7664 22.2625 20.5725 22.325 20.4287 22.325C20.2664 22.325 20.1602 22.1812 20.1602 21.9688C20.1602 21.4563 20.4788 21.1438 20.8662 20.8Z" fill="black"/>
</g>
<defs>
<clipPath id="clip0_36_181">
<rect width="32" height="32" fill="white"/>
</clipPath>
</defs>
</svg>
