<svg width="33" height="32" viewBox="0 0 33 32" fill="none" xmlns="http://www.w3.org/2000/svg">
<path d="M16.0322 10.25C15.2822 9.83333 14.6156 9.66667 14.0322 9.75C12.8656 9.75 11.8656 10.146 11.0322 10.938C10.1989 11.73 9.78225 12.751 9.78225 14.001C9.69892 14.5843 9.78225 15.1677 10.0322 15.751C10.2822 16.3343 10.6156 16.876 11.0322 17.376L14.7822 21.001C15.1156 21.3343 15.5322 21.501 16.0322 21.501C16.5322 21.501 16.9489 21.3343 17.2822 21.001L21.0322 17.251C21.9489 16.3343 22.3866 15.2927 22.3452 14.126C22.3039 12.9593 21.8662 11.9177 21.0322 11.001C20.3656 10.3343 19.5739 9.91767 18.6572 9.751C17.7406 9.58433 16.8656 9.751 16.0322 10.251V10.25ZM19.7822 16L16.0322 19.75L12.2822 16C11.6989 15.5 11.4072 14.854 11.4072 14.062C11.4072 13.27 11.6782 12.645 12.2202 12.187C12.7622 11.729 13.3249 11.4997 13.9083 11.499C14.4916 11.4983 14.9709 11.6233 15.3463 11.874C15.7216 12.1247 16.0759 12.1247 16.4093 11.874C16.9926 11.5407 17.5969 11.3947 18.2222 11.436C18.8476 11.4773 19.3892 11.7483 19.8472 12.249C20.3053 12.7497 20.5553 13.354 20.5972 14.062C20.6392 14.77 20.3682 15.416 19.7843 16H19.7822ZM16.0322 0.625C13.6156 0.625 11.3656 1.22933 9.28225 2.438C7.19892 3.64667 5.55292 5.27167 4.34425 7.313C3.13558 9.35433 2.53125 11.5837 2.53125 14.001C2.53125 17.8343 4.61458 21.751 8.78125 25.751C10.8646 27.8343 13.1146 29.6677 15.5312 31.251C15.6979 31.3343 15.8646 31.376 16.0312 31.376C16.1979 31.376 16.3646 31.3343 16.5312 31.251C18.8646 29.751 21.0729 27.9593 23.1562 25.876C27.3229 21.7093 29.4062 17.751 29.4062 14.001C29.4062 11.5843 28.8229 9.355 27.6562 7.313C26.4896 5.271 24.8646 3.646 22.7812 2.438C20.6979 1.23 18.4479 0.625667 16.0312 0.625H16.0322ZM16.0322 29.5C14.6989 28.6667 13.3656 27.625 12.0322 26.375C9.86558 24.5417 8.15725 22.7083 6.90725 20.875C5.15725 18.4583 4.28225 16.1873 4.28225 14.062C4.28225 11.9367 4.82392 9.97833 5.90725 8.187C6.99058 6.39567 8.42825 4.979 10.2202 3.937C12.0122 2.895 13.9499 2.374 16.0332 2.374C18.1166 2.374 20.0542 2.895 21.8462 3.937C23.6382 4.979 25.0759 6.39567 26.1593 8.187C27.2426 9.97833 27.7843 11.916 27.7843 14C27.7843 17.0833 26.0759 20.375 22.6593 23.875C20.7426 25.875 18.5343 27.75 16.0343 29.5H16.0322Z" fill="#1B1918"/>
</svg>
