<svg width="33" height="32" viewBox="0 0 33 32" fill="none" xmlns="http://www.w3.org/2000/svg">
<g clip-path="url(#clip0_31_24)">
<path d="M29.251 5.5H4.251C3.41767 5.5 2.73 5.771 2.188 6.313C1.646 6.855 1.375 7.54267 1.375 8.376V23.751C1.375 24.501 1.646 25.1677 2.188 25.751C2.73 26.3343 3.41767 26.626 4.251 26.626H29.251C30.0843 26.626 30.772 26.3343 31.314 25.751C31.856 25.1677 32.127 24.501 32.127 23.751V8.376C32.127 7.54267 31.856 6.855 31.314 6.313C30.772 5.771 30.0843 5.5 29.251 5.5ZM29.251 7.25C29.501 7.25 29.7093 7.29167 29.876 7.375L17.501 15C17.001 15.25 16.501 15.25 16.001 15L3.626 7.375C3.876 7.29167 4.08433 7.25 4.251 7.25H29.251ZM29.251 24.75H4.251C3.91767 24.75 3.64667 24.6457 3.438 24.437C3.22933 24.2283 3.125 23.9573 3.125 23.624V9.124L15.125 16.499C15.625 16.749 16.146 16.874 16.688 16.874C17.23 16.874 17.751 16.749 18.251 16.499L30.251 9.124V23.624C30.3343 23.9573 30.2717 24.2283 30.063 24.437C29.8543 24.6457 29.5833 24.75 29.25 24.75H29.251Z" fill="#1B1918"/>
</g>
<defs>
<clipPath id="clip0_31_24">
<rect width="32" height="32" fill="white" transform="translate(0.75)"/>
</clipPath>
</defs>
</svg>
