<svg width="33" height="32" viewBox="0 0 33 32" fill="none" xmlns="http://www.w3.org/2000/svg">
<path d="M30.8741 27.75L29.1241 14.625C28.9574 13.875 28.5824 13.229 27.9991 12.687C27.4157 12.145 26.7074 11.874 25.8741 11.874H22.7491C23.6657 10.4574 24.1241 9.20736 24.1241 8.12402C24.1241 6.79069 23.7907 5.54069 23.1241 4.37402C22.4574 3.20736 21.5407 2.29069 20.3741 1.62402C19.2074 0.957357 17.9574 0.624023 16.6241 0.624023C15.2907 0.624023 14.0407 0.957357 12.8741 1.62402C11.7074 2.29069 10.7907 3.20736 10.1241 4.37402C9.45741 5.54069 9.12407 6.79069 9.12407 8.12402C9.12407 9.20736 9.58241 10.4574 10.4991 11.874H7.37407C6.54074 11.874 5.83241 12.145 5.24907 12.687C4.66574 13.229 4.29074 13.875 4.12407 14.625L2.37407 27.75C2.29074 28.6667 2.56174 29.5 3.18707 30.25C3.81241 31 4.62507 31.375 5.62507 31.375H27.6251C28.5417 31.375 29.3334 31 30.0001 30.25C30.6667 29.5 30.9584 28.6667 30.8751 27.75H30.8741ZM16.6241 2.37502C18.2074 2.37502 19.5617 2.93769 20.6871 4.06302C21.8124 5.18836 22.3751 6.54269 22.3751 8.12602C22.3751 9.12602 21.6667 10.501 20.2501 12.251C19.2501 13.501 18.0417 14.751 16.6251 16.001C15.2084 14.751 14.0001 13.501 13.0001 12.251C11.5834 10.501 10.8751 9.12602 10.8751 8.12602C10.8751 6.54269 11.4377 5.18836 12.5631 4.06302C13.6884 2.93769 15.0427 2.37502 16.6261 2.37502H16.6241ZM5.87407 14.875C5.95741 14.5417 6.14507 14.25 6.43707 14C6.72907 13.75 7.04174 13.625 7.37507 13.625H11.7501C12.9167 14.9584 14.3334 16.375 16.0001 17.875C16.1667 18.0417 16.3544 18.125 16.5631 18.125C16.7717 18.125 16.9594 18.0417 17.1261 17.875L17.2511 17.75C18.9177 16.3334 20.2927 14.9584 21.3761 13.625H25.7511C26.1677 13.625 26.5011 13.75 26.7511 14C27.0011 14.25 27.1677 14.5417 27.2511 14.875L27.6261 18H22.7511C22.4177 18 22.2094 18.125 22.1261 18.375L18.6261 22.25H4.87607L5.87407 14.875ZM4.49907 29.125C4.24907 28.7917 4.12407 28.4167 4.12407 28L4.62407 24H18.9991C19.3324 24 19.5407 23.9167 19.6241 23.75L23.1241 19.75H27.8741L28.3741 23.25L19.8741 25.875C19.6241 25.9584 19.4364 26.1667 19.3111 26.5C19.1857 26.8334 19.2484 27.0834 19.4991 27.25L21.6241 29.625H5.62407C5.20741 29.625 4.83241 29.4584 4.49907 29.125ZM28.7491 29.125C28.4157 29.4584 28.0407 29.625 27.6241 29.625H24.1241L21.8741 27.125L28.6241 25L29.1241 28C29.1241 28.4167 28.9991 28.7917 28.7491 29.125ZM19.8741 7.87502C19.8741 6.95836 19.5614 6.16669 18.9361 5.50002C18.3107 4.83336 17.5397 4.50002 16.6231 4.50002C15.7064 4.50002 14.9354 4.83336 14.3101 5.50002C13.6847 6.16669 13.3721 6.95836 13.3721 7.87502C13.3721 8.79169 13.6847 9.56269 14.3101 10.188C14.9354 10.8134 15.7064 11.126 16.6231 11.126C17.5397 11.126 18.3107 10.8134 18.9361 10.188C19.5614 9.56269 19.8741 8.79169 19.8741 7.87502ZM15.1241 7.87502C15.1241 7.45836 15.2701 7.08336 15.5621 6.75002C15.8541 6.41669 16.2084 6.25002 16.6251 6.25002C17.0417 6.25002 17.3961 6.41669 17.6881 6.75002C17.9801 7.08336 18.1261 7.45836 18.1261 7.87502C18.1261 8.29169 17.9801 8.64602 17.6881 8.93802C17.3961 9.23002 17.0417 9.37602 16.6251 9.37602C16.2084 9.37602 15.8541 9.23002 15.5621 8.93802C15.2701 8.64602 15.1241 8.29169 15.1241 7.87502Z" fill="#1B1918"/>
</svg>
