<svg width="32" height="32" viewBox="0 0 32 32" fill="none" xmlns="http://www.w3.org/2000/svg">
<path d="M30.5 21H1.5C1.25 21 1.04167 21.0833 0.875 21.25C0.708333 21.4167 0.625 21.625 0.625 21.875C0.625 22.125 0.708333 22.3333 0.875 22.5C1.04167 22.6667 1.25 22.75 1.5 22.75H30.5C30.75 22.75 30.9583 22.6457 31.125 22.437C31.2917 22.2283 31.375 21.999 31.375 21.749C31.375 21.499 31.2917 21.3113 31.125 21.186C30.9583 21.0607 30.75 20.998 30.5 20.998V21ZM1.5 11H30.5C30.75 11 30.9583 10.9167 31.125 10.75C31.2917 10.5833 31.375 10.375 31.375 10.125C31.375 9.875 31.2917 9.66667 31.125 9.5C30.9583 9.33333 30.75 9.25 30.5 9.25H1.5C1.25 9.25 1.04167 9.35433 0.875 9.563C0.708333 9.77167 0.625 10.001 0.625 10.251C0.625 10.501 0.708333 10.6887 0.875 10.814C1.04167 10.9393 1.25 11.002 1.5 11.002V11Z" fill="#1B1918"/>
</svg>
