<svg width="32" height="32" viewBox="0 0 32 32" fill="none" xmlns="http://www.w3.org/2000/svg">
<path d="M6.5 15.125C6.25 15.125 6.02067 15.2083 5.812 15.375C5.60333 15.5417 5.499 15.75 5.499 16C5.499 16.25 5.60333 16.4793 5.812 16.688C6.02067 16.8967 6.25 17.001 6.5 17.001H25.5C25.75 17.001 25.9793 16.8967 26.188 16.688C26.3967 16.4793 26.501 16.25 26.501 16C26.501 15.75 26.3967 15.5417 26.188 15.375C25.9793 15.2083 25.75 15.125 25.5 15.125H6.5ZM30.5 24H1.5C1.25 24 1.04167 24.0833 0.875 24.25C0.708333 24.4167 0.625 24.625 0.625 24.875C0.625 25.125 0.708333 25.3333 0.875 25.5C1.04167 25.6667 1.25 25.75 1.5 25.75H30.5C30.75 25.75 30.9583 25.6457 31.125 25.437C31.2917 25.2283 31.375 24.999 31.375 24.749C31.375 24.499 31.2917 24.3113 31.125 24.186C30.9583 24.0607 30.75 23.998 30.5 23.998V24ZM1.5 8H30.5C30.75 8 30.9583 7.91667 31.125 7.75C31.2917 7.58333 31.375 7.375 31.375 7.125C31.375 6.875 31.2917 6.66667 31.125 6.5C30.9583 6.33333 30.75 6.25 30.5 6.25H1.5C1.25 6.25 1.04167 6.35433 0.875 6.563C0.708333 6.77167 0.625 7.001 0.625 7.251C0.625 7.501 0.708333 7.68867 0.875 7.814C1.04167 7.93933 1.25 8.002 1.5 8.002V8Z" fill="black"/>
</svg>
