<svg width="32" height="32" viewBox="0 0 32 32" fill="none" xmlns="http://www.w3.org/2000/svg">
<g clip-path="url(#clip0_41_327)">
<path d="M16 0C7.32642 0 0 6.65088 0 15.0625C0 19.5703 2.17505 23.6929 5.6875 26.5V31.0625C5.6875 31.3892 5.85742 31.6921 6.13623 31.8625C6.41187 32.0308 6.75879 32.0474 7.05273 31.8967L11.7061 29.5117C13.0981 29.8772 14.5408 30.0625 16 30.0625C24.8225 30.0625 32 23.3335 32 15.0625C32 6.64673 24.6689 0 16 0ZM16 28.1875C14.5891 28.1875 13.1965 27.9932 11.8613 27.6101C11.6323 27.5442 11.387 27.5681 11.1753 27.6768L7.5625 29.5286V26.0408C7.5625 25.7458 7.42383 25.4683 7.18823 25.2913C3.81152 22.7537 1.875 19.0254 1.875 15.0625C1.875 7.79077 8.21143 1.875 16 1.875C23.7886 1.875 30.125 7.79077 30.125 15.0625C30.125 22.2996 23.7886 28.1875 16 28.1875Z" fill="black"/>
<path d="M24.9558 9.53662L18.06 12.9844L14.7878 9.71215C14.5993 9.52368 14.3396 9.42407 14.0732 9.43896C13.8069 9.45385 13.5595 9.58129 13.393 9.78955L5.89304 19.1646C5.61789 19.5083 5.61911 19.9971 5.89597 20.3396C6.17282 20.6819 6.65061 20.7854 7.04441 20.5886L13.9399 17.1409L17.2121 20.4131C17.4006 20.6016 17.6601 20.7009 17.927 20.686C18.1931 20.6714 18.4404 20.544 18.6072 20.3357L26.1072 10.9607C26.3821 10.6169 26.3808 10.1279 26.104 9.78564C25.8274 9.44335 25.3496 9.33959 24.9558 9.53662ZM17.7973 18.3464L14.7878 15.3372C14.5024 15.0518 14.0666 14.981 13.7058 15.1614L10.0234 17.0024L14.2026 11.7786L17.2121 14.7878C17.4973 15.0732 17.9333 15.144 18.2942 14.9636L21.9765 13.1226L17.7973 18.3464Z" fill="black"/>
</g>
<defs>
<clipPath id="clip0_41_327">
<rect width="32" height="32" fill="white"/>
</clipPath>
</defs>
</svg>
