<svg width="200" height="93" viewBox="0 0 200 93" fill="none" xmlns="http://www.w3.org/2000/svg">
<g clip-path="url(#clip0_733_3188)">
<path d="M37.875 37.8594C35.7969 37.8594 33.9688 38.625 32.6406 39.9063C31.2344 38.625 29.4219 37.8594 27.4063 37.8594C26.1562 37.8594 24.9844 38.1563 23.9219 38.6875C23.5781 38.1563 22.9062 37.7812 22.1719 37.7812C20.9531 37.7812 19.8906 38.8438 19.8906 40.0938V54.5781C19.8906 55.7969 20.9531 56.8125 22.1719 56.8125C23.4687 56.8125 24.4531 55.7813 24.4531 54.5781V45.0313C24.4531 43.5469 25.7812 42.4219 27.4063 42.4219C29.0313 42.4219 30.3594 43.5625 30.3594 45.0313V54.4688C30.3594 55.7656 31.3438 56.75 32.6406 56.75C33.8594 56.75 34.875 55.7656 34.875 54.4688V45.0313C34.875 43.5469 36.2031 42.4219 37.875 42.4219C39.4219 42.4219 40.75 43.5625 40.75 45.0313V54.4688C40.75 55.7656 41.8125 56.75 43.0625 56.75C44.3125 56.75 45.2969 55.7656 45.2969 54.4688V45.0313C45.3125 41.0781 41.9375 37.8594 37.875 37.8594Z" fill="black"/>
<path d="M51.2969 37.4531C49.9687 37.4531 48.9062 38.4844 48.9062 39.7656V54.3906C48.9062 55.6719 49.9687 56.7344 51.2969 56.7344C52.5469 56.7344 53.6094 55.6719 53.6094 54.3906V39.7656C53.6094 38.4687 52.5469 37.4531 51.2969 37.4531ZM51.2969 29.6406C49.9687 29.6406 48.9062 30.6719 48.9062 31.9844V32.1719C48.9062 33.4219 49.9687 34.4844 51.2969 34.4844C52.5469 34.4844 53.6094 33.4219 53.6094 32.1719V31.9844C53.6094 30.6562 52.5469 29.6406 51.2969 29.6406Z" fill="black"/>
<path d="M66.0469 37.8281C64.3438 37.8281 62.7813 38.3281 61.4219 39.1875C61.125 38.2812 60.2813 37.6406 59.2969 37.6406C58.0469 37.6406 57.0156 38.6719 57.0156 39.9219V54.4062C57.0156 55.6562 58.0469 56.6875 59.2969 56.6875C60.5469 56.6875 61.5781 55.6562 61.5781 54.4062V47.9687C61.5781 45.3594 63.0938 42.3906 66.0469 42.3906C68.4375 42.3906 70.4062 44.5469 70.4062 47.25V54.4062C70.4062 55.6562 71.3906 56.6875 72.6875 56.6875C73.9375 56.6875 74.9219 55.6562 74.9219 54.4062V47.25C74.9062 42.0312 70.9375 37.8281 66.0469 37.8281Z" fill="black"/>
<path d="M80.5156 37.4531C79.1875 37.4531 78.125 38.4844 78.125 39.7656V54.3906C78.125 55.6719 79.1875 56.7344 80.5156 56.7344C81.7656 56.7344 82.8281 55.6719 82.8281 54.3906V39.7656C82.8281 38.4687 81.7656 37.4531 80.5156 37.4531ZM80.5156 29.6406C79.1875 29.6406 78.125 30.6719 78.125 31.9844V32.1719C78.125 33.4219 79.1875 34.4844 80.5156 34.4844C81.7656 34.4844 82.8281 33.4219 82.8281 32.1719V31.9844C82.8281 30.6562 81.7656 29.6406 80.5156 29.6406Z" fill="black"/>
<path d="M124.016 42.2969C121.328 42.2969 119.172 44.4531 119.172 47.1406C119.172 49.8281 121.328 51.9844 124.016 51.9844C126.703 51.9844 128.859 49.8281 128.859 47.1406C128.859 44.4531 126.719 42.2969 124.016 42.2969Z" fill="black"/>
<path d="M165.984 42.4062C164.234 42.4062 162.719 43.2812 161.812 44.6875H169.844C169.094 43.25 167.688 42.4062 165.984 42.4062Z" fill="black"/>
<path d="M139.672 47.1563C139.672 49.922 141.906 52.1563 144.672 52.1563C147.438 52.1563 149.672 49.922 149.672 47.1563C149.672 44.3907 147.438 42.1563 144.672 42.1563C141.906 42.1407 139.672 44.3907 139.672 47.1563Z" fill="black"/>
<path d="M165.281 29.6406H154.609V31.9844V54.3906C154.609 55.6406 153.594 56.6719 152.297 56.6719C151.266 56.6719 150.406 56.0312 150.094 55.0781C148.578 56.1406 146.687 56.75 144.672 56.75C139.406 56.75 135.078 52.4688 135.078 47.1563C135.078 41.8906 139.406 37.5625 144.672 37.5625C146.641 37.5625 148.469 38.1719 150.016 39.1562V31.9844V29.6406H104.828C95.5781 29.6406 87.9375 36.9531 87.4063 46.0781C87.3906 46.4062 87.375 46.75 87.375 47.0937C87.375 47.4375 87.3906 47.7812 87.4063 48.1094C87.9375 57.2969 95.5781 64.5469 104.828 64.5469H165.297C174.891 64.5469 182.75 56.75 182.828 47.1563C182.734 37.5 174.875 29.6406 165.281 29.6406ZM99.7656 47.2344C99.7656 48.5156 100.328 49.8125 101.281 50.6875C102.234 51.6406 103.484 52.125 104.766 52.0937C106.016 52.0937 107.187 51.6094 108.094 50.7656C108.969 49.8906 110.437 49.9687 111.281 50.875C112.156 51.7812 112.078 53.2188 111.172 54.0938C109.469 55.6875 107.234 56.5937 104.875 56.6406H104.719C102.219 56.6406 99.9062 55.6875 98.125 53.9844C96.2969 52.2031 95.2812 49.8594 95.2031 47.3125C95.1719 44.8125 96.0781 42.3906 97.8906 40.5625C99.6406 38.7344 101.984 37.7187 104.531 37.6406C107.062 37.6094 109.453 38.5469 111.281 40.3281C112.187 41.1562 112.234 42.6406 111.359 43.5156C110.484 44.4219 109.047 44.4687 108.141 43.5937C107.187 42.6875 105.937 42.1875 104.609 42.1875C103.281 42.1875 102.078 42.75 101.125 43.7031C100.25 44.6562 99.7187 45.9063 99.7656 47.2344ZM124.016 56.6719C118.781 56.6719 114.5 52.4219 114.5 47.1563C114.5 41.9219 118.781 37.6406 124.016 37.6406C129.25 37.6406 133.531 41.9219 133.562 47.1875C133.531 52.4219 129.25 56.6719 124.016 56.6719ZM175 46.0469C175 46.3906 174.844 46.7656 174.703 47.1406C174.406 47.8594 173.75 48.5 172.844 48.5H161.172C161.703 50.6562 163.641 52.3281 165.984 52.3281C167.203 52.3281 168.984 51.8281 169.969 50.8906C170.875 50.0156 172.312 50.0156 173.187 50.9219C174.094 51.7969 174.062 53.2656 173.156 54.1406C171.062 56.1562 168.156 56.8281 165.984 56.8281C160.719 56.8281 156.516 52.5781 156.516 47.3125C156.516 42.125 160.719 37.7969 165.984 37.7969C166.547 37.7969 167.078 37.8281 167.656 37.9531C170.234 38.4531 172.437 40.0313 173.797 42.3125C174.406 43.3906 175.078 44.7969 175 46.0469Z" fill="black"/>
</g>
<defs>
<clipPath id="clip0_733_3188">
<rect width="200" height="91.875" fill="white" transform="translate(0 0.5625)"/>
</clipPath>
</defs>
</svg>
