<svg width="70" height="70" viewBox="0 0 70 70" fill="none" xmlns="http://www.w3.org/2000/svg">
<path d="M14.9575 47.5232C14.2672 47.5232 13.7075 48.0829 13.7075 48.7732C13.7075 49.4358 13.1687 49.9749 12.5064 49.9749C11.8437 49.9749 11.3047 49.4358 11.3047 48.7732C11.3047 48.1107 11.8437 47.5718 12.5064 47.5718C13.1967 47.5718 13.7564 47.0121 13.7564 46.3218C13.7564 45.6315 13.1967 45.0718 12.5064 45.0718C10.4653 45.0718 8.80469 46.7322 8.80469 48.7732C8.80469 50.8143 10.4653 52.4749 12.5064 52.4749C14.5472 52.4749 16.2075 50.8143 16.2075 48.7732C16.2075 48.0827 15.6478 47.5232 14.9575 47.5232Z" fill="#42403F"/>
<path d="M60.0122 47.5232C59.3219 47.5232 58.7622 48.0829 58.7622 48.7732C58.7622 49.4358 58.2234 49.9749 57.5611 49.9749C56.8984 49.9749 56.3594 49.4358 56.3594 48.7732C56.3594 48.1107 56.8984 47.5718 57.5611 47.5718C58.2514 47.5718 58.8111 47.0121 58.8111 46.3218C58.8111 45.6315 58.2514 45.0718 57.5611 45.0718C55.52 45.0718 53.8594 46.7322 53.8594 48.7732C53.8594 50.8143 55.52 52.4749 57.5611 52.4749C59.6019 52.4749 61.2622 50.8143 61.2622 48.7732C61.2622 48.0827 60.7025 47.5232 60.0122 47.5232Z" fill="#42403F"/>
<path d="M69.8266 31.5376L65.0342 23.4177C63.3906 20.6754 61.8397 19.074 58.7355 18.8032C58.6338 18.7765 58.5267 18.7621 58.4164 18.7621H48.8281V16.223C48.8281 14.8446 47.7066 13.723 46.3281 13.723H2.5C1.12156 13.723 0 14.8446 0 16.223V47.5232C0 48.9018 1.12156 50.0232 2.5 50.0232H5.10797C5.70531 53.5676 8.79422 56.2768 12.5058 56.2768C16.2166 56.2768 19.3048 53.5676 19.902 50.0232H50.1658C50.7631 53.5676 53.852 56.2768 57.5636 56.2768C61.2744 56.2768 64.3627 53.5676 64.9598 50.0232H68.75C69.4403 50.0232 70 49.4635 70 48.7732V32.1729C70 31.9494 69.94 31.7299 69.8266 31.5376ZM65.0661 36.3272C65.0661 35.638 65.6269 35.0772 66.3161 35.0772H67.5V37.538H65.0661V36.3272ZM66.7503 31.2441H55.2673C55.185 31.2271 55.0997 31.218 55.0122 31.218C54.3091 31.218 53.737 30.646 53.737 29.9427V24.934H63.0261L66.7503 31.2441ZM2.5 16.223H46.3281V47.5232H19.9022C19.3053 43.9788 16.2167 41.2696 12.5058 41.2696C8.79391 41.2696 5.70484 43.979 5.10781 47.5232H2.5V16.223ZM12.5058 53.7768C9.74656 53.7768 7.50187 51.5319 7.50187 48.7727C7.50187 46.014 9.74656 43.7694 12.5058 43.7694C15.2641 43.7694 17.5083 46.014 17.5083 48.7727C17.5083 51.5319 15.2641 53.7768 12.5058 53.7768ZM57.5636 53.7768C54.8044 53.7768 52.5597 51.5319 52.5597 48.7727C52.5597 46.014 54.8044 43.7694 57.5636 43.7694C60.3219 43.7694 62.5661 46.014 62.5661 48.7727C62.5661 51.5319 60.322 53.7768 57.5636 53.7768ZM64.96 47.5232C64.3631 43.9788 61.2745 41.2696 57.5636 41.2696C53.8517 41.2696 50.7627 43.979 50.1656 47.5232H48.8281V21.2621H57.7459C59.3413 21.2621 60.3375 21.5983 61.2164 22.434H52.487C51.7967 22.434 51.237 22.9936 51.237 23.684V29.9427C51.237 31.9202 52.7652 33.5476 54.7027 33.7054C54.8017 33.7307 54.9055 33.744 55.0122 33.744H63.6014C62.9606 34.4171 62.5661 35.3266 62.5661 36.3271V38.7879C62.5661 39.4782 63.1258 40.0379 63.8161 40.0379H67.5V47.523H64.96V47.5232Z" fill="#42403F"/>
<path d="M6.30469 21.2621H42.5287C43.2191 21.2621 43.7787 20.7024 43.7787 20.0121C43.7787 19.3218 43.2191 18.7621 42.5287 18.7621H6.30469C5.61437 18.7621 5.05469 19.3218 5.05469 20.0121C5.05469 20.7024 5.61437 21.2621 6.30469 21.2621Z" fill="#42403F"/>
</svg>
