<svg width="70" height="70" viewBox="0 0 70 70" fill="none" xmlns="http://www.w3.org/2000/svg">
<g clip-path="url(#clip0_731_10053)">
<path d="M18.9836 17.6272H29.6618C30.3176 17.6272 30.8478 17.097 30.8478 16.4412C30.8478 15.7854 30.3176 15.2545 29.6618 15.2545H18.9836C18.3278 15.2545 17.7969 15.7854 17.7969 16.4412C17.7969 17.097 18.3278 17.6272 18.9836 17.6272Z" fill="#42403F"/>
<path d="M26.1016 20.0001C26.1016 20.6559 26.6318 21.1868 27.2876 21.1868H43.8979C44.5537 21.1868 45.0846 20.6559 45.0846 20.0001C45.0846 19.3443 44.5537 18.8141 43.8979 18.8141H27.2876C26.6318 18.8141 26.1016 19.3443 26.1016 20.0001Z" fill="#42403F"/>
<path d="M5.93236 38.9836H43.8984C44.5542 38.9836 45.0851 38.4527 45.0851 37.7969V31.8648C45.0851 31.209 44.5542 30.6781 43.8984 30.6781H7.42116C6.87669 30.6781 6.40283 31.0481 6.27112 31.5763L4.78164 37.5084C4.69271 37.8628 4.77282 38.2382 4.99753 38.5267C5.22224 38.8152 5.56779 38.9836 5.93236 38.9836ZM18.9833 36.6102V33.0508H30.8475V36.6102H18.9833ZM42.7124 36.6102H33.2209V33.0508H42.7124V36.6102ZM8.34716 33.0508H16.6106V36.6102H7.45374L8.34716 33.0508Z" fill="#42403F"/>
<path d="M47.7948 38.6253C48.0182 38.8547 48.3244 38.9837 48.6441 38.9837H56.9489C57.4377 38.9837 57.877 38.683 58.0542 38.2281C58.232 37.7726 58.1125 37.2546 57.7521 36.9246L51.3108 30.9966C51.0922 30.795 50.8057 30.683 50.5083 30.683H48.7507C48.3671 30.6599 47.9544 30.8208 47.7032 31.146C47.4669 31.4542 47.3984 31.854 47.5097 32.2179C47.5477 32.8941 47.5158 35.4766 47.4574 37.7665C47.4493 38.0862 47.5708 38.3958 47.7948 38.6253ZM49.9136 33.0557H50.046L53.9075 36.6103H49.86C49.9001 35.0115 49.9231 33.8737 49.9136 33.0557Z" fill="#42403F"/>
<path d="M70 43.7291C70 43.7061 69.9878 43.687 69.9871 43.6646C69.9199 42.0095 69.0631 40.5078 67.6517 39.6192L63.2532 36.854L52.0699 26.3075C51.002 25.3007 49.6056 24.7461 48.1378 24.7461H4.33673C3.79226 24.7461 3.31704 25.1168 3.18534 25.6463L0.0346233 38.3021C0.0115411 38.3958 0 38.4922 0 38.5886V47.2885C0 47.9016 0.467753 48.4148 1.07875 48.4705L11.979 49.4664C12.2831 52.4243 14.7604 54.7475 17.7963 54.7475C20.7665 54.7475 23.2037 52.5255 23.5947 49.6613H49.9647C50.3557 52.5255 52.7929 54.7475 55.7624 54.7475C58.7325 54.7475 61.1697 52.5248 61.5608 49.6606L62.5974 49.6592L66.0828 49.4399C68.279 49.3008 70 47.4684 70 45.2668V43.8703C70 43.8344 69.9939 43.7991 69.9932 43.7631C69.9939 43.7509 70 43.7414 70 43.7291ZM5.26341 27.1188H48.1378C48.9973 27.1188 49.8167 27.4433 50.4413 28.0346L61.7088 38.6599C61.7658 38.7135 61.8269 38.7597 61.8921 38.8018L66.3883 41.6287C66.759 41.8615 67.0529 42.1786 67.2641 42.5424H2.37271V38.7346L5.26341 27.1188ZM50.1283 47.2885H23.4304C23.1779 46.3924 22.7278 45.5839 22.1147 44.9158H51.444C50.8316 45.5839 50.3815 46.3917 50.1283 47.2885ZM2.37271 44.9158H13.4779C12.9077 45.5377 12.4813 46.2818 12.2193 47.1052L2.37271 46.205V44.9158ZM17.7963 52.3748C15.8642 52.3748 14.2919 50.8025 14.2919 48.8697C14.2919 46.9382 15.8642 45.3666 17.7963 45.3666C19.7291 45.3666 21.3014 46.9389 21.3014 48.8697C21.3014 50.8025 19.7291 52.3748 17.7963 52.3748ZM55.7624 52.3748C53.8303 52.3748 52.258 50.8025 52.258 48.8697C52.258 46.9382 53.8303 45.3666 55.7624 45.3666C57.6952 45.3666 59.2675 46.9389 59.2675 48.8697C59.2675 50.8025 57.6952 52.3748 55.7624 52.3748ZM65.9335 47.072L62.5234 47.2879H61.3965C61.1439 46.3917 60.6938 45.5839 60.0808 44.9152H67.6273V45.2668C67.6273 46.2186 66.8832 47.0116 65.9335 47.072Z" fill="#42403F"/>
<path d="M19.0757 48.8704C19.0757 49.5771 18.5027 50.1501 17.7953 50.1501C17.0886 50.1501 16.5156 49.5771 16.5156 48.8704C16.5156 48.1637 17.0886 47.5907 17.7953 47.5907C18.5027 47.5907 19.0757 48.1637 19.0757 48.8704Z" fill="#42403F"/>
<path d="M57.0445 48.8704C57.0445 49.5771 56.4715 50.1501 55.7641 50.1501C55.0574 50.1501 54.4844 49.5771 54.4844 48.8704C54.4844 48.1637 55.0574 47.5907 55.7641 47.5907C56.4715 47.5907 57.0445 48.1637 57.0445 48.8704Z" fill="#42403F"/>
</g>
<defs>
<clipPath id="clip0_731_10053">
<rect width="70" height="70" fill="white"/>
</clipPath>
</defs>
</svg>
