<svg width="70" height="70" viewBox="0 0 70 70" fill="none" xmlns="http://www.w3.org/2000/svg">
<path d="M52.5809 33.9062H39.2941C38.1577 33.9062 37.1995 34.7933 37.1131 35.9264L36.0938 49.2188C36.0938 50.4252 37.0748 51.4062 38.2812 51.4062H53.5937C54.8002 51.4062 55.7812 50.4252 55.778 49.1345L54.7619 35.9253C54.6744 34.7933 53.7162 33.9062 52.5809 33.9062ZM38.278 49.303L39.2941 36.0938H44.8437V49.2669L38.278 49.303ZM47.0312 49.2548V36.0938H52.5809L53.5959 49.2188L47.0312 49.2548Z" fill="#42403F"/>
<path d="M63.4375 42.6562H60.0687L59.4759 35.5491C59.2452 32.7808 57.2589 30.5298 54.6875 29.8014V25.1562H52.5V29.5312H46.3378L18.5938 6.055V3.82812C18.5938 2.32094 17.3666 1.09375 15.8594 1.09375C15.272 1.09375 14.6902 1.28734 14.2188 1.64062L11.1552 3.9375C10.3338 4.55437 9.84375 5.53547 9.84375 6.5625V7.20344L4.24266 12.8045C3.6225 13.4236 3.28125 14.2483 3.28125 15.1255V18.1409C3.28125 19.4414 4.22844 20.5188 5.46875 20.7353V31.7188C4.26234 31.7188 3.28125 32.6998 3.28125 33.9062V36.0938C3.28125 36.5859 3.45078 37.0355 3.72641 37.4019C2.03109 39.1923 1.09375 41.5177 1.09375 43.9928C1.09375 49.2866 5.40094 53.5938 10.6947 53.5938H14.7897L14.3019 54.8122C13.802 56.0656 12.6066 56.875 11.2569 56.875C9.29688 56.875 7.52719 57.96 6.63797 59.7067L5.92156 61.1144C5.80125 61.3506 5.59672 61.5256 5.34406 61.6087L4.86719 61.7663C3.36766 62.2584 2.10328 63.3511 1.39672 64.762C1.19875 65.158 1.09375 65.6009 1.09375 66.0428C1.09375 67.6222 2.37781 68.9062 3.95719 68.9062H53.5938H55.7812H56.875C61.0969 68.9062 64.5312 65.4719 64.5312 61.25C64.5312 59.1084 63.6453 57.1725 62.2234 55.7812H65.625C67.4341 55.7812 68.9062 54.3091 68.9062 52.5V48.125C68.9062 45.1095 66.453 42.6562 63.4375 42.6562ZM66.5175 47.0312H64.5312V45.045C65.4577 45.3753 66.1872 46.1048 66.5175 47.0312ZM60.1562 44.8438H62.3438V47.0312H60.1562V44.8438ZM42.9516 29.5312H39.1322C36.7423 29.5312 34.6489 30.8044 33.5016 32.7217L18.5938 13.8392V8.92063L42.9516 29.5312ZM30.0114 55.452L26.4173 54.0137C26.0444 53.8639 25.7195 53.6156 25.4789 53.2952L23.7344 50.9688C22.913 49.8728 21.6038 49.2188 20.2344 49.2188H18.5938V47.4491L16.4062 46.3553V38.2812C17.6127 38.2812 18.5938 37.3002 18.5938 36.0938V17.3687L32.6364 35.1564C32.6069 35.3664 32.5861 35.5808 32.5763 35.7973L31.7505 54.3189C31.1183 54.6153 30.5353 55.0003 30.0114 55.452ZM12.0312 38.2812H14.2188V47.7072L16.4062 48.8009V51.4062H12.0312V38.2812ZM5.46875 15.1255C5.46875 14.8334 5.5825 14.5578 5.78922 14.3511L9.84375 10.2966V14.8597L6.24203 18.4614C5.98172 18.7217 5.46875 18.5106 5.46875 18.1409V15.1255ZM7.65625 20.1173C7.69891 20.0791 7.74812 20.0495 7.78859 20.008L9.84375 17.9528V31.7188H7.65625V20.1173ZM5.46875 33.9062H12.0312V6.5625C12.0312 6.22016 12.1942 5.89312 12.4688 5.6875L15.5302 3.39172C15.8703 3.13688 16.4062 3.40812 16.4062 3.82812L16.4073 36.0938H5.46875V33.9062ZM3.28125 43.9928C3.28125 42.012 4.05234 40.1505 5.45234 38.7505L5.92156 38.2812H9.84375V51.3537C6.15562 50.9294 3.28125 47.7925 3.28125 43.9928ZM3.95719 66.7188C3.58422 66.7188 3.28125 66.4158 3.28125 66.0428C3.28125 65.9389 3.30531 65.8339 3.35234 65.7409C3.79859 64.8473 4.60031 64.1561 5.54969 63.8444L6.02766 63.6869C6.83156 63.4233 7.48672 62.8622 7.87172 62.1064L8.58813 60.6987C9.10109 59.6892 10.1237 59.0625 11.2569 59.0625C13.5067 59.0625 15.4995 57.7128 16.3352 55.6248L17.2102 53.4362C18.0184 53.1147 18.5938 52.3283 18.5938 51.4062H20.2344C20.9191 51.4062 21.5731 51.7333 21.9844 52.2812L23.7289 54.6077C24.2102 55.2497 24.8588 55.7463 25.6036 56.0438L28.5097 57.2064C27.7758 58.3822 27.3438 59.7647 27.3438 61.25C27.3438 63.3916 28.2297 65.3275 29.6516 66.7188H3.95719ZM44.8438 62.3438V66.7188H42.6562V62.3438H44.8438ZM49.2188 62.3438V66.7188H47.0312V62.3438H49.2188ZM51.4062 66.7188V62.3438H53.5938V66.7188H51.4062ZM55.7812 66.7188V62.3438H57.9688V66.6083C57.6155 66.6805 57.2491 66.7188 56.875 66.7188H55.7812ZM62.3438 61.25C62.3438 63.0295 61.4764 64.598 60.1562 65.5966V62.3438C60.1562 61.1373 59.1752 60.1562 57.9688 60.1562H38.08C37.6272 58.8864 36.4241 57.9688 35 57.9688C33.1909 57.9688 31.7188 59.4409 31.7188 61.25C31.7188 63.0591 33.1909 64.5312 35 64.5312C36.4241 64.5312 37.6272 63.6136 38.08 62.3438H40.4688V66.7188H35C31.9845 66.7188 29.5312 64.2655 29.5312 61.25C29.5312 58.2345 31.9845 55.7812 35 55.7812H56.875C59.8905 55.7812 62.3438 58.2345 62.3438 61.25ZM36.0938 61.25C36.0938 61.8527 35.6027 62.3438 35 62.3438C34.3973 62.3438 33.9062 61.8527 33.9062 61.25C33.9062 60.6473 34.3973 60.1562 35 60.1562C35.6027 60.1562 36.0938 60.6473 36.0938 61.25ZM65.625 53.5938H35C34.6511 53.5938 34.3066 53.6167 33.9697 53.6627L34.7616 35.8947C34.8677 33.553 36.7872 31.7188 39.1322 31.7188H52.9375C55.195 31.7188 57.1091 33.4808 57.2972 35.7306L57.9688 43.7938V47.0312C57.9688 48.2377 58.9498 49.2188 60.1562 49.2188H66.7188V52.5C66.7188 53.1027 66.2277 53.5938 65.625 53.5938Z" fill="#42403F"/>
<path d="M20.7812 55.7812H22.9688V57.9688H20.7812V55.7812Z" fill="#42403F"/>
<path d="M22.9688 62.3438H25.1562V64.5312H22.9688V62.3438Z" fill="#42403F"/>
<path d="M16.4062 60.1562H18.5938V62.3438H16.4062V60.1562Z" fill="#42403F"/>
<path d="M12.0312 62.3438H14.2188V64.5312H12.0312V62.3438Z" fill="#42403F"/>
</svg>
