<svg width="33" height="32" viewBox="0 0 33 32" fill="none" xmlns="http://www.w3.org/2000/svg">
<g clip-path="url(#clip0_31_16)">
<path d="M24.8119 30.6248C22.7285 30.6248 20.3119 29.9164 17.5619 28.4998C14.8119 27.0831 12.1035 25.0831 9.43686 22.4998C7.0202 20.2498 5.08253 17.9371 3.62386 15.5618C2.1652 13.1864 1.2902 10.9988 0.998863 8.99876C0.70753 6.99876 1.10353 5.45709 2.18686 4.37376C2.2702 4.20709 2.43686 4.08209 2.68686 3.99876L6.81186 1.62376C7.31186 1.37376 7.83286 1.31109 8.37486 1.43576C8.91686 1.56042 9.31286 1.83142 9.56286 2.24876L12.6879 6.62376C13.0212 7.12376 13.1255 7.62376 13.0009 8.12376C12.8762 8.62376 12.6052 9.04042 12.1879 9.37376L10.3129 10.6238C10.2295 10.6238 10.1879 10.6654 10.1879 10.7488L10.3129 10.8738C11.3962 12.4571 12.6879 14.0404 14.1879 15.6238C16.4379 18.0404 18.8962 20.0404 21.5629 21.6238C21.6462 21.7071 21.7295 21.7281 21.8129 21.6868C21.8962 21.6454 21.9795 21.6244 22.0629 21.6238L23.3129 19.8738C23.6462 19.3738 24.0839 19.0821 24.6259 18.9988C25.1679 18.9154 25.6889 19.0404 26.1889 19.3738L30.8139 22.2488C31.2305 22.5821 31.5015 22.9988 31.6269 23.4988C31.7522 23.9988 31.6895 24.4988 31.4389 24.9988L28.9389 28.9988C28.8555 29.1654 28.7305 29.3321 28.5639 29.4988C27.6472 30.2488 26.3972 30.6238 24.8139 30.6238L24.8119 30.6248ZM7.93686 3.12476H7.68686L3.43686 5.49976C2.68686 6.33309 2.47853 7.56242 2.81186 9.18776C3.1452 10.8131 3.93686 12.6674 5.18686 14.7508C6.60353 17.0008 8.43686 19.1884 10.6869 21.3138C12.9369 23.4391 15.2285 25.1684 17.5619 26.5018C19.7285 27.7518 21.7079 28.5228 23.4999 28.8148C25.2919 29.1068 26.5629 28.9191 27.3129 28.2518L29.9379 24.1268C30.0212 23.9601 29.9795 23.8351 29.8129 23.7518L25.3129 20.8768H24.9999C24.9999 20.8768 24.9372 20.9184 24.8119 21.0018L23.4369 22.7518C23.1035 23.1684 22.6659 23.4184 22.1239 23.5018C21.5819 23.5851 21.1025 23.5018 20.6859 23.2518C17.8525 21.5851 15.2275 19.4601 12.8109 16.8768C11.2275 15.2101 9.8942 13.5434 8.81086 11.8768C8.47753 11.4601 8.3732 10.9601 8.49786 10.3768C8.62253 9.79342 8.89353 9.37676 9.31086 9.12676L11.1859 7.87676C11.2692 7.87676 11.3109 7.83509 11.3109 7.75176V7.50176L8.18586 3.25176C8.10253 3.16842 8.0192 3.12676 7.93586 3.12676L7.93686 3.12476Z" fill="#1B1918"/>
</g>
<defs>
<clipPath id="clip0_31_16">
<rect width="32" height="32" fill="white" transform="translate(0.3125)"/>
</clipPath>
</defs>
</svg>
