<svg width="33" height="32" viewBox="0 0 33 32" fill="none" xmlns="http://www.w3.org/2000/svg">
<g clip-path="url(#clip0_31_21)">
<path d="M22.6572 4.5C21.5739 4.5 20.4906 4.66667 19.4072 5C17.4072 3.5 15.1573 2.75 12.6573 2.75C10.6573 2.75 8.80292 3.25 7.09425 4.25C5.38558 5.25 4.03125 6.60433 3.03125 8.313C2.03125 10.0217 1.53125 11.876 1.53125 13.876C1.53125 16.376 3.23958 19.626 6.65625 23.626C8.40625 25.626 10.1979 27.4593 12.0312 29.126C12.1979 29.2093 12.3856 29.251 12.5943 29.251C12.8029 29.251 12.9906 29.2093 13.1573 29.126L13.4073 28.876C15.3239 27.126 16.9906 25.4177 18.4072 23.751C19.4906 25.001 20.6572 26.1677 21.9072 27.251C22.0739 27.4177 22.2822 27.501 22.5322 27.501C22.7822 27.501 22.9489 27.4177 23.0322 27.251C24.6156 26.001 26.1989 24.4177 27.7822 22.501C30.6989 19.0843 32.1572 16.2927 32.1572 14.126C32.2406 12.376 31.8446 10.751 30.9692 9.251C30.0939 7.751 28.9272 6.58433 27.4692 5.751C26.0112 4.91767 24.4069 4.501 22.6562 4.501L22.6572 4.5ZM12.6573 27.25C10.4906 25.25 8.53225 23.1667 6.78225 21C4.44892 18 3.28225 15.6457 3.28225 13.937C3.28225 12.2283 3.69892 10.645 4.53225 9.187C5.36558 7.729 6.51158 6.583 7.97025 5.749C9.42892 4.915 11.0122 4.49833 12.7203 4.499C14.4283 4.49967 15.9909 4.91633 17.4082 5.749C18.8256 6.58167 19.9716 7.70667 20.8462 9.124C21.7209 10.5413 22.1376 12.1247 22.0962 13.874C22.0549 15.6233 20.8672 17.9983 18.5332 20.999C16.7832 23.1657 14.8249 25.249 12.6583 27.249L12.6573 27.25ZM22.6572 25.5C21.5739 24.5 20.5739 23.5 19.6572 22.5C22.4072 19 23.7822 16.125 23.7822 13.875C23.7822 12.4583 23.5322 11.125 23.0322 9.875C22.5322 8.625 21.8239 7.45833 20.9072 6.375C21.6572 6.29167 22.2406 6.25 22.6572 6.25C24.0739 6.25 25.3866 6.60433 26.5952 7.313C27.8039 8.02167 28.7622 8.98 29.4702 10.188C30.1782 11.396 30.5326 12.7293 30.5332 14.188C30.5339 15.6467 29.5339 17.626 27.5332 20.126C26.1999 21.9593 24.5749 23.751 22.6582 25.501L22.6572 25.5ZM12.6573 8.625C11.2406 8.625 10.0322 9.125 9.03225 10.125C8.03225 11.125 7.53225 12.3333 7.53225 13.75C7.53225 15.1667 8.03225 16.375 9.03225 17.375C10.0322 18.375 11.2406 18.875 12.6573 18.875C14.0739 18.875 15.2823 18.375 16.2823 17.375C17.2823 16.375 17.7822 15.1667 17.7822 13.75C17.7822 12.3333 17.2823 11.125 16.2823 10.125C15.2823 9.125 14.0739 8.625 12.6573 8.625ZM12.6573 17.125C11.7406 17.125 10.9489 16.7917 10.2823 16.125C9.61558 15.4583 9.28225 14.6667 9.28225 13.75C9.28225 12.8333 9.61558 12.0417 10.2823 11.375C10.9489 10.7083 11.7406 10.375 12.6573 10.375C13.5739 10.375 14.3656 10.7083 15.0323 11.375C15.6989 12.0417 16.0323 12.8333 16.0323 13.75C16.0323 14.6667 15.6989 15.4583 15.0323 16.125C14.3656 16.7917 13.5739 17.125 12.6573 17.125Z" fill="#1B1918"/>
</g>
<defs>
<clipPath id="clip0_31_21">
<rect width="32" height="32" fill="white" transform="translate(0.90625)"/>
</clipPath>
</defs>
</svg>
