<svg width="33" height="32" viewBox="0 0 33 32" fill="none" xmlns="http://www.w3.org/2000/svg">
<g clip-path="url(#clip0_31_12)">
<path d="M31.2832 15.125H17.6582V1.5C17.6582 1.25 17.5749 1.04167 17.4082 0.875C17.2415 0.708333 17.0332 0.625 16.7832 0.625C16.5332 0.625 16.3249 0.708333 16.1582 0.875C15.9915 1.04167 15.9082 1.25 15.9082 1.5V15.125H2.2832C2.0332 15.125 1.82487 15.2083 1.6582 15.375C1.49154 15.5417 1.4082 15.75 1.4082 16C1.4082 16.25 1.49154 16.4583 1.6582 16.625C1.82487 16.7917 2.0332 16.875 2.2832 16.875H15.9082V30.5C15.9082 30.75 15.9915 30.9583 16.1582 31.125C16.3249 31.2917 16.5332 31.375 16.7832 31.375C17.0332 31.375 17.2625 31.2917 17.4712 31.125C17.6799 30.9583 17.7842 30.75 17.7842 30.5V16.875H31.2842C31.5342 16.875 31.7425 16.7917 31.9092 16.625C32.0759 16.4583 32.1592 16.25 32.1592 16C32.1592 15.75 32.0759 15.5417 31.9092 15.375C31.7425 15.2083 31.5342 15.125 31.2842 15.125H31.2832Z" fill="#1B1918"/>
</g>
<defs>
<clipPath id="clip0_31_12">
<rect width="32" height="32" fill="white" transform="translate(0.783203)"/>
</clipPath>
</defs>
</svg>
