<svg width="33" height="32" viewBox="0 0 33 32" fill="none" xmlns="http://www.w3.org/2000/svg">
<g clip-path="url(#clip0_31_30)">
<path d="M16.876 0.625C14.126 0.625 11.5633 1.31267 9.188 2.688C6.81267 4.06333 4.93767 5.93833 3.563 8.313C2.18833 10.6877 1.50067 13.2503 1.5 16.001C1.49933 18.7517 2.187 21.3143 3.563 23.689C4.939 26.0637 6.814 27.9387 9.188 29.314C11.562 30.6893 14.1247 31.377 16.876 31.377C19.6273 31.377 22.19 30.6893 24.564 29.314C26.938 27.9387 28.813 26.0637 30.189 23.689C31.565 21.3143 32.2527 18.7517 32.252 16.001C32.2513 13.2503 31.5637 10.6877 30.189 8.313C28.8143 5.93833 26.9393 4.06333 24.564 2.688C22.1887 1.31267 19.626 0.625 16.876 0.625ZM16.876 29.625C14.4593 29.625 12.2093 29.0207 10.126 27.812C8.04267 26.6033 6.376 24.9573 5.126 22.874C3.876 20.7907 3.251 18.499 3.251 15.999C3.251 13.499 3.876 11.228 5.126 9.186C6.376 7.144 8.022 5.498 10.064 4.248C12.106 2.998 14.377 2.373 16.877 2.373C19.377 2.373 21.6687 2.998 23.752 4.248C25.8353 5.498 27.4813 7.16467 28.69 9.248C29.8987 11.3313 30.503 13.6023 30.503 16.061C30.503 18.5197 29.8987 20.7907 28.69 22.874C27.4813 24.9573 25.8353 26.6033 23.752 27.812C21.6687 29.0207 19.377 29.625 16.877 29.625H16.876ZM17.751 6C17.001 5.83333 16.2927 5.85433 15.626 6.063C14.9593 6.27167 14.355 6.58433 13.813 7.001C13.271 7.41767 12.8333 7.95933 12.5 8.626C12.1667 9.29267 12 9.93867 12 10.564C12 11.1893 12.125 11.752 12.375 12.252C12.4583 12.502 12.6043 12.6897 12.813 12.815C13.0217 12.9403 13.23 12.9613 13.438 12.878C13.646 12.7947 13.8127 12.6487 13.938 12.44C14.0633 12.2313 14.0843 12.002 14.001 11.752V11.627C13.8343 11.2103 13.751 10.9187 13.751 10.752C13.751 9.752 14.126 8.93933 14.876 8.314C15.626 7.68867 16.4593 7.501 17.376 7.751C18.0427 7.83433 18.6053 8.10533 19.064 8.564C19.5227 9.02267 19.8143 9.58533 19.939 10.252C20.0637 10.9187 19.9387 11.5647 19.564 12.19C19.1893 12.8153 18.6893 13.253 18.064 13.503C17.4387 13.753 16.9387 14.1697 16.564 14.753C16.1893 15.3363 16.0017 16.003 16.001 16.753V20.003C16.001 20.253 16.0843 20.4613 16.251 20.628C16.4177 20.7947 16.626 20.878 16.876 20.878C17.126 20.878 17.3343 20.7947 17.501 20.628C17.6677 20.4613 17.751 20.253 17.751 20.003V16.753C17.751 16.4197 17.8343 16.107 18.001 15.815C18.1677 15.523 18.4177 15.3353 18.751 15.252C19.751 14.752 20.522 14.0227 21.064 13.064C21.606 12.1053 21.7937 11.0843 21.627 10.001C21.4603 8.91767 21.0227 8.02167 20.314 7.313C19.6053 6.60433 18.751 6.16667 17.751 6ZM16.876 23.375H16.751C16.501 23.375 16.2927 23.4583 16.126 23.625C15.9593 23.7917 15.876 24 15.876 24.25C15.876 24.5 15.9593 24.7293 16.126 24.938C16.2927 25.1467 16.501 25.251 16.751 25.251H16.876C17.126 25.251 17.3553 25.1467 17.564 24.938C17.7727 24.7293 17.877 24.5 17.877 24.25C17.877 24 17.7727 23.7917 17.564 23.625C17.3553 23.4583 17.126 23.375 16.876 23.375Z" fill="#1B1918"/>
</g>
<defs>
<clipPath id="clip0_31_30">
<rect width="32" height="32" fill="white" transform="translate(0.875)"/>
</clipPath>
</defs>
</svg>
