<svg width="70" height="70" viewBox="0 0 70 70" fill="none" xmlns="http://www.w3.org/2000/svg">
<g clip-path="url(#clip0_731_10059)">
<path d="M67.8058 33.0861L62.6405 29.6427L56.7275 16.6744C55.9413 15.0892 54.3224 14.0889 52.553 14.0946H4.54571C1.96828 14.0946 -0.121094 16.184 -0.121094 18.7619V50.264C-0.121094 50.9082 0.401132 51.4305 1.04584 51.4305H7.29831C8.57254 55.0661 12.5524 56.9798 16.1875 55.7056C18.1881 55.0044 19.7615 53.4311 20.4627 51.4305H46.9675C48.2418 55.0661 52.2216 56.9798 55.8573 55.7056C57.8579 55.0044 59.4307 53.4311 60.1319 51.4305H68.7168C69.3615 51.4305 69.8838 50.9082 69.8838 50.264V36.2631C69.8334 34.9006 69.034 33.6781 67.8058 33.0861ZM59.8285 29.2624H51.2156C50.5714 29.2624 50.0492 28.7402 50.0492 28.0955V22.2618C50.0492 21.6175 50.5714 21.0953 51.2156 21.0953H55.7452L59.8285 29.2624ZM18.4526 50.0304C17.9365 52.5556 15.4707 54.1845 12.9455 53.6684C10.4203 53.1524 8.7914 50.687 9.30746 48.1618C9.82351 45.6361 12.2889 44.0072 14.8141 44.5238C16.987 44.9677 18.5475 46.8795 18.5471 49.0971C18.5466 49.4109 18.5153 49.7233 18.4526 50.0304ZM58.1218 50.0304C57.6058 52.5556 55.1404 54.1845 52.6147 53.6684C50.0895 53.1524 48.4606 50.687 48.9767 48.1618C49.4927 45.6361 51.9581 44.0072 54.4838 44.5238C56.6567 44.9677 58.2168 46.8795 58.2163 49.0971C58.2163 49.4109 58.1845 49.7233 58.1218 50.0304ZM67.5504 44.4303H62.8836V46.7637H67.5504V49.0971H60.5497C60.5497 45.2312 57.4154 42.0969 53.5495 42.0969C49.6831 42.0969 46.5488 45.2312 46.5488 49.0971H20.8805C20.8805 45.2312 17.7462 42.0969 13.8798 42.0969C10.0139 42.0969 6.87958 45.2312 6.87958 49.0971H2.21231V46.7637H5.71264V44.4303H2.21231V36.2631H45.3824V33.9292H2.21231V18.7619C2.21231 17.473 3.25723 16.428 4.54618 16.428H52.553C53.4237 16.4219 54.2232 16.9061 54.6215 17.6799L55.1138 18.7619H51.2161C49.2829 18.7619 47.7158 20.3286 47.7158 22.2618V28.0955C47.7158 30.0287 49.2829 31.5958 51.2161 31.5958H61.3667L66.5145 35.0273C66.5448 35.0473 66.5657 35.0753 66.5937 35.0962H64.05C63.4058 35.0962 62.8836 35.6184 62.8836 36.2631V40.9299C62.8836 41.5742 63.4058 42.0964 64.05 42.0964H67.5504V44.4303ZM67.5504 39.763H65.217V37.4296H67.5504V39.763Z" fill="#42403F"/>
<path d="M47.7148 33.929H53.5486V36.2628H47.7148V33.929Z" fill="#42403F"/>
<path d="M22.0469 44.4301H45.3818V46.7634H22.0469V44.4301Z" fill="#42403F"/>
</g>
<defs>
<clipPath id="clip0_731_10059">
<rect width="70" height="70" fill="white"/>
</clipPath>
</defs>
</svg>
