<svg width="33" height="32" viewBox="0 0 33 32" fill="none" xmlns="http://www.w3.org/2000/svg">
<g clip-path="url(#clip0_31_18)">
<path d="M31.2244 28.5L22.4744 21.375C23.6411 19.7917 24.4121 18.0417 24.7874 16.125C25.1627 14.2084 25.0584 12.3124 24.4744 10.437C23.8904 8.56169 22.8904 6.91569 21.4744 5.49902C20.3077 4.33236 18.9951 3.45736 17.5364 2.87402C16.0777 2.29069 14.5361 1.99902 12.9114 1.99902C11.2867 1.99902 9.74507 2.29069 8.28641 2.87402C6.82774 3.45736 5.51507 4.33236 4.34841 5.49902C2.84841 6.99902 1.82741 8.79069 1.28541 10.874C0.743406 12.9574 0.743406 15.0407 1.28541 17.124C1.82741 19.2074 2.84841 21.0407 4.34841 22.624C5.51507 23.7907 6.82774 24.6657 8.28641 25.249C9.74507 25.8324 11.2867 26.124 12.9114 26.124C14.5361 26.124 16.0571 25.8324 17.4744 25.249C18.8917 24.6657 20.1834 23.8324 21.3494 22.749L30.2244 29.999C30.3077 30.0824 30.4744 30.124 30.7244 30.124C30.9744 30.124 31.1827 30.0197 31.3494 29.811C31.5161 29.6024 31.5994 29.373 31.5994 29.123C31.5994 28.873 31.4744 28.6647 31.2244 28.498V28.5ZM12.9744 24.375C11.5577 24.375 10.2244 24.104 8.97441 23.562C7.72441 23.02 6.59941 22.249 5.59941 21.249C4.26607 19.9157 3.37007 18.374 2.91141 16.624C2.45274 14.874 2.45274 13.103 2.91141 11.311C3.37007 9.51902 4.26607 7.99802 5.59941 6.74802C6.59941 5.74802 7.72441 4.97702 8.97441 4.43502C10.2244 3.89302 11.5371 3.62202 12.9124 3.62202C14.2877 3.62202 15.6004 3.89302 16.8504 4.43502C18.1004 4.97702 19.2254 5.74802 20.2254 6.74802C21.5587 8.08136 22.4547 9.62302 22.9134 11.373C23.3721 13.123 23.3721 14.894 22.9134 16.686C22.4547 18.478 21.5587 19.999 20.2254 21.249C19.2254 22.249 18.1004 23.02 16.8504 23.562C15.6004 24.104 14.3087 24.375 12.9754 24.375H12.9744Z" fill="#1B1918"/>
</g>
<defs>
<clipPath id="clip0_31_18">
<rect width="32" height="32" fill="white" transform="translate(0.224609)"/>
</clipPath>
</defs>
</svg>
