<svg width="32" height="32" viewBox="0 0 32 32" fill="none" xmlns="http://www.w3.org/2000/svg">
<g clip-path="url(#clip0_31_7)">
<path d="M12.5 24.875L8.25 29L8.125 1.5C8.125 1.25 8.04167 1.04167 7.875 0.875C7.70833 0.708333 7.5 0.625 7.25 0.625C7 0.625 6.79167 0.708333 6.625 0.875C6.45833 1.04167 6.375 1.25 6.375 1.5L6.5 29L2.125 24.875C1.95833 24.7083 1.75 24.625 1.5 24.625C1.25 24.625 1.04167 24.7293 0.875 24.938C0.708333 25.1467 0.625 25.355 0.625 25.563C0.625 25.771 0.708333 26.0003 0.875 26.251L6 30.876C6.41667 31.2093 6.875 31.376 7.375 31.376C7.875 31.376 8.33333 31.2093 8.75 30.876L13.75 26.126C13.9167 25.9593 14 25.751 14 25.501C14 25.251 13.9167 25.0427 13.75 24.876C13.5833 24.7093 13.375 24.626 13.125 24.626C12.875 24.626 12.6667 24.7093 12.5 24.876V24.875ZM31.125 6L26 1.125H25.875C25.4583 0.791667 24.979 0.625 24.437 0.625C23.895 0.625 23.4157 0.791667 22.999 1.125L18.124 5.75C17.9573 5.91667 17.874 6.125 17.874 6.375C17.874 6.625 17.9367 6.83333 18.062 7C18.1873 7.16667 18.375 7.271 18.625 7.313C18.875 7.355 19.0833 7.29233 19.25 7.125L23.625 3L23.75 30.5C23.75 30.75 23.8333 30.9583 24 31.125C24.1667 31.2917 24.375 31.375 24.625 31.375C24.875 31.375 25.0833 31.2917 25.25 31.125C25.4167 30.9583 25.5 30.75 25.5 30.5L25.375 3L29.875 7.25C30.0417 7.41667 30.25 7.5 30.5 7.5C30.75 7.5 30.9583 7.41667 31.125 7.25C31.2917 7.08333 31.375 6.875 31.375 6.625C31.375 6.375 31.2917 6.16667 31.125 6Z" fill="#1B1918"/>
</g>
<defs>
<clipPath id="clip0_31_7">
<rect width="32" height="32" fill="white"/>
</clipPath>
</defs>
</svg>
