<svg width="32" height="32" viewBox="0 0 32 32" fill="none" xmlns="http://www.w3.org/2000/svg">
<g clip-path="url(#clip0_99_678)">
<path d="M7.75 31.375C7.33333 31.375 6.95833 31.25 6.625 31C6.29167 30.75 6.04167 30.4374 5.875 30.062C5.70833 29.6867 5.66667 29.3324 5.75 28.999L7.125 20.499L1.25 14.374C1 14.124 0.833333 13.7907 0.75 13.374C0.666667 12.9574 0.666667 12.5824 0.75 12.249C1 11.499 1.54167 11.0407 2.375 10.874L10.5 9.49905L14.125 1.74905C14.2917 1.41571 14.5417 1.14471 14.875 0.936047C15.2083 0.72738 15.5833 0.623047 16 0.623047C16.75 0.623047 17.3333 0.998047 17.75 1.74805L21.5 9.49805L29.625 10.748C30.0417 10.8314 30.375 10.998 30.625 11.248C30.875 11.498 31.0627 11.8107 31.188 12.186C31.3133 12.5614 31.3343 12.9364 31.251 13.311C31.1677 13.6857 31.001 14.04 30.751 14.374L24.876 20.374L26.251 28.999C26.3343 29.3324 26.2927 29.6867 26.126 30.062C25.9593 30.4374 25.73 30.75 25.438 31C25.146 31.25 24.8127 31.375 24.438 31.375C24.0633 31.375 23.6673 31.2917 23.25 31.125L16 27.125L8.75 31.125C8.41667 31.2917 8.08333 31.375 7.75 31.375ZM2.5 13.25L8.5 19.375C8.83333 19.7084 8.95833 20.125 8.875 20.625L7.5 29.25C7.5 29.3334 7.54167 29.4584 7.625 29.625C7.70833 29.7084 7.79167 29.7084 7.875 29.625L15.375 25.5C15.7917 25.25 16.2083 25.25 16.625 25.5L24.25 29.5H24.375C24.4583 29.4167 24.5 29.3334 24.5 29.25L23.125 20.5C23.125 20 23.25 19.5834 23.5 19.25L29.5 13.125C29.5833 13.0417 29.625 12.9167 29.625 12.75L29.375 12.5L21 11.25C20.5833 11.1667 20.25 10.9167 20 10.5L16.25 2.50005C16.25 2.41671 16.1873 2.37505 16.062 2.37505C15.9367 2.37505 15.8323 2.41671 15.749 2.50005L11.999 10.5C11.749 10.9167 11.4157 11.1667 10.999 11.25L2.624 12.625C2.54067 12.625 2.499 12.6667 2.499 12.75L2.374 13C2.374 13.0834 2.41567 13.1667 2.499 13.25H2.5Z" fill="#1B1918"/>
</g>
<defs>
<clipPath id="clip0_99_678">
<rect width="32" height="32" fill="white"/>
</clipPath>
</defs>
</svg>
