<svg width="32" height="32" viewBox="0 0 32 32" fill="none" xmlns="http://www.w3.org/2000/svg">
<path d="M29.8757 12L20.7507 10.5L16.7507 2C16.584 1.66667 16.334 1.5 16.0007 1.5C15.6673 1.5 15.4173 1.66667 15.2507 2L11.2507 10.625L2.25067 12C1.91733 12 1.688 12.1667 1.56267 12.5C1.43733 12.8333 1.5 13.125 1.75067 13.375L8.37567 20.125L6.75067 29.5C6.75067 29.8333 6.87567 30.1043 7.12567 30.313C7.37567 30.5217 7.66733 30.5427 8.00067 30.376L16.1257 25.876L24.2507 30.376C24.5007 30.5427 24.7507 30.5217 25.0007 30.313C25.2507 30.1043 25.334 29.8333 25.2507 29.5L23.7507 20.125L30.2507 13.375C30.5007 13.125 30.584 12.8333 30.5007 12.5C30.4173 12.1667 30.209 12 29.8757 12Z" fill="#1B1918"/>
</svg>
