<svg width="33" height="32" viewBox="0 0 33 32" fill="none" xmlns="http://www.w3.org/2000/svg">
<g clip-path="url(#clip0_31_25)">
<path d="M15.4385 9.37502H7.0635C6.8135 9.37502 6.60517 9.45836 6.4385 9.62502C6.27183 9.79169 6.1885 10 6.1885 10.25C6.1885 10.5 6.27183 10.7294 6.4385 10.938C6.60517 11.1467 6.8135 11.251 7.0635 11.251H15.4385C15.6885 11.251 15.9178 11.1467 16.1265 10.938C16.3352 10.7294 16.4395 10.5 16.4395 10.25C16.4395 10 16.3352 9.79169 16.1265 9.62502C15.9178 9.45836 15.6885 9.37502 15.4385 9.37502ZM7.0635 15.125H10.9385C11.1885 15.125 11.3968 15.0417 11.5635 14.875C11.7302 14.7084 11.8135 14.5 11.8135 14.25C11.8135 14 11.7302 13.7707 11.5635 13.562C11.3968 13.3534 11.1885 13.249 10.9385 13.249H7.0635C6.8135 13.249 6.60517 13.3534 6.4385 13.562C6.27183 13.7707 6.1885 14 6.1885 14.25C6.1885 14.5 6.27183 14.7084 6.4385 14.875C6.60517 15.0417 6.8135 15.125 7.0635 15.125ZM13.5635 17.25H7.0635C6.8135 17.25 6.60517 17.3544 6.4385 17.563C6.27183 17.7717 6.1885 18.001 6.1885 18.251C6.1885 18.501 6.27183 18.7094 6.4385 18.876C6.60517 19.0427 6.8135 19.126 7.0635 19.126H13.5635C13.8135 19.126 14.0218 19.0427 14.1885 18.876C14.3552 18.7094 14.4385 18.501 14.4385 18.251C14.4385 18.001 14.3552 17.7717 14.1885 17.563C14.0218 17.3544 13.8135 17.25 13.5635 17.25ZM24.4385 8.62502C23.8552 8.54169 23.3135 8.62502 22.8135 8.87502C22.3135 9.12502 21.9385 9.50002 21.6885 10C21.5218 10.25 21.4802 10.4794 21.5635 10.688C21.6468 10.8967 21.7928 11.0634 22.0015 11.188C22.2102 11.3127 22.4185 11.3544 22.6265 11.313C22.8345 11.2717 23.0222 11.1257 23.1895 10.875C23.4395 10.5417 23.7728 10.375 24.1895 10.375C24.4395 10.375 24.6272 10.4584 24.7525 10.625C24.8778 10.7917 24.9822 11 25.0655 11.25C25.0655 11.6667 24.8778 11.9584 24.5025 12.125C24.1272 12.2917 23.8145 12.5627 23.5645 12.938C23.3145 13.3134 23.1895 13.751 23.1895 14.251V14.876C23.1895 15.126 23.2938 15.3344 23.5025 15.501C23.7112 15.6677 23.9405 15.751 24.1905 15.751C24.4405 15.751 24.6488 15.6677 24.8155 15.501C24.9822 15.3344 25.0655 15.126 25.0655 14.876V14.251C25.0655 14.1677 25.1072 14.0634 25.1905 13.938C25.2738 13.8127 25.3572 13.75 25.4405 13.75C25.9405 13.5 26.3155 13.125 26.5655 12.625C26.8155 12.125 26.8988 11.5834 26.8155 11C26.7322 10.4167 26.4612 9.89569 26.0025 9.43702C25.5438 8.97836 25.0228 8.70736 24.4395 8.62402L24.4385 8.62502ZM24.0635 17.5C23.7302 17.5 23.4385 17.625 23.1885 17.875C22.9385 18.125 22.8135 18.4167 22.8135 18.75C22.8135 19.0834 22.9385 19.375 23.1885 19.625C23.4385 19.875 23.7512 20 24.1265 20C24.5018 20 24.8145 19.875 25.0645 19.625C25.3145 19.375 25.4395 19.0834 25.4395 18.75C25.4395 18.4167 25.3145 18.125 25.0645 17.875C24.8145 17.625 24.4812 17.5 24.0645 17.5H24.0635ZM27.8135 4.75002H4.5635C3.48017 4.75002 2.58417 5.10436 1.8755 5.81302C1.16683 6.52169 0.8125 7.37602 0.8125 8.37602V25.001C0.8125 25.9177 1.1875 26.5844 1.9375 27.001C2.27083 27.1677 2.62517 27.251 3.0005 27.251C3.37583 27.251 3.77183 27.1677 4.1885 27.001L9.9385 23.626L10.1885 23.501H27.9385C28.9385 23.501 29.7928 23.1467 30.5015 22.438C31.2102 21.7294 31.5645 20.875 31.5645 19.875V8.50002C31.5645 7.41669 31.2102 6.52069 30.5015 5.81202C29.7928 5.10336 28.8968 4.74902 27.8135 4.74902V4.75002ZM29.8135 19.875C29.8135 20.4584 29.6258 20.9377 29.2505 21.313C28.8752 21.6884 28.4375 21.876 27.9375 21.876H10.0625C9.72917 21.876 9.35417 21.9594 8.9375 22.126L3.1875 25.501C3.02083 25.5844 2.89583 25.5844 2.8125 25.501C2.64583 25.4177 2.5625 25.2927 2.5625 25.126V8.50102C2.5625 7.91769 2.75017 7.43836 3.1255 7.06302C3.50083 6.68769 3.98017 6.50002 4.5635 6.50002H27.8135C28.3968 6.50002 28.8762 6.68769 29.2515 7.06302C29.6268 7.43836 29.8145 7.91769 29.8145 8.50102V19.876L29.8135 19.875Z" fill="#1B1918"/>
</g>
<defs>
<clipPath id="clip0_31_25">
<rect width="32" height="32" fill="white" transform="translate(0.1875)"/>
</clipPath>
</defs>
</svg>
