<svg width="70" height="70" viewBox="0 0 70 70" fill="none" xmlns="http://www.w3.org/2000/svg">
<path d="M5.41758 56.2863H5.40665C4.84035 56.2863 4.38672 56.7454 4.38672 57.3117C4.38672 57.8779 4.85129 58.337 5.41758 58.337C5.98388 58.337 6.44298 57.8779 6.44298 57.3117C6.44298 56.7454 5.98401 56.2863 5.41758 56.2863Z" fill="#42403F"/>
<path d="M40.4918 56.2863H40.4809C39.9146 56.2863 39.4609 56.7454 39.4609 57.3117C39.4609 57.8779 39.9255 58.337 40.4918 58.337C41.0581 58.337 41.5172 57.8779 41.5172 57.3117C41.5172 56.7454 41.0581 56.2863 40.4918 56.2863Z" fill="#42403F"/>
<path d="M31.7131 56.2863H14.1777C13.6114 56.2863 13.1523 56.7454 13.1523 57.3117C13.1523 57.8779 13.6114 58.337 14.1777 58.337H31.7131C32.2794 58.337 32.7385 57.8779 32.7385 57.3117C32.7385 56.7454 32.2794 56.2863 31.7131 56.2863Z" fill="#42403F"/>
<path d="M16.3707 39.8466H9.79493C9.22864 39.8466 8.76953 40.3057 8.76953 40.872C8.76953 41.4382 9.22864 41.8973 9.79493 41.8973H16.3707C16.937 41.8973 17.3961 41.4382 17.3961 40.872C17.3961 40.3057 16.937 39.8466 16.3707 39.8466Z" fill="#42403F"/>
<path d="M68.2514 45.9747L58.2123 8.84594C58.0607 8.28484 57.6798 7.80523 57.1676 7.53042C56.6555 7.25561 56.0453 7.20325 55.4936 7.387L53.9952 7.88657C53.1864 8.15605 52.6195 8.87943 52.5513 9.72928L52.2683 13.251L33.4458 20.863C32.406 21.2903 31.6246 22.1474 31.3021 23.2146L29.251 30.0016C28.2083 30.1347 27.3989 31.0257 27.3989 32.104V35.463H7.6012C5.82712 35.463 4.38391 36.9064 4.38391 38.6803V46.3521C4.38391 48.1261 5.82726 49.5694 7.6012 49.5694H10.9596V51.9023H5.40917C2.42664 51.9022 0 54.3288 0 57.3115C0 60.2942 2.42664 62.7208 5.40917 62.7208H40.4799C40.4806 62.7208 40.4812 62.7207 40.4817 62.7207C40.4829 62.7207 40.4842 62.7208 40.4854 62.7208C43.4681 62.7208 45.8946 60.2942 45.8946 57.3115C45.8946 54.3288 43.4679 51.9023 40.4854 51.9023C40.4842 51.9023 40.4829 51.9025 40.4817 51.9025C40.481 51.9025 40.4805 51.9023 40.4799 51.9023H34.9295V49.5694H38.2879C39.4577 49.5694 40.4092 48.6178 40.4092 47.448V42.4508C40.4092 42.0308 40.348 41.6139 40.2273 41.2116L37.3027 31.4624L38.3481 27.1326L48.5231 22.1904C49.0326 21.943 49.2449 21.3295 48.9974 20.8201C48.7501 20.3108 48.1368 20.0984 47.6271 20.3458L37.0179 25.4988C36.7431 25.6322 36.542 25.8815 36.4697 26.1783L35.5426 29.9829H31.399L33.2651 23.808C33.4084 23.334 33.7582 22.9521 34.2198 22.7625L54.2444 14.6644C54.5195 14.5532 54.8215 14.5556 55.0947 14.6716C55.3679 14.7874 55.5796 15.0027 55.6909 15.2779C55.9086 15.8163 55.6685 16.4387 55.1464 16.6938L51.4874 18.471C50.9779 18.7185 50.7656 19.3319 51.0131 19.8413C51.2605 20.3507 51.8741 20.5632 52.3834 20.3156L53.0349 19.9992L61.2914 44.2316C60.8548 44.2365 60.4685 44.5168 60.3301 44.9318L57.2759 54.0949H55.7668C55.2005 54.0949 54.7414 54.554 54.7414 55.1203C54.7414 55.6866 55.2005 56.1457 55.7668 56.1457H64.0424C67.3274 56.1457 70 53.4732 70 50.1882C70.0004 48.5438 69.3313 47.0537 68.2514 45.9747ZM5.40917 60.67C3.55744 60.67 2.05079 59.1634 2.05079 57.3115C2.05079 55.4596 3.55744 53.9531 5.40917 53.9531C7.2609 53.9531 8.76755 55.4598 8.76755 57.3115C8.76755 59.1632 7.26104 60.67 5.40917 60.67ZM40.4855 53.953C42.3374 53.953 43.8439 55.4596 43.8439 57.3114C43.8439 59.1631 42.3373 60.6699 40.4855 60.6699C38.6338 60.6699 37.1272 59.1632 37.1272 57.3114C37.1272 55.4595 38.6337 53.953 40.4855 53.953ZM36.2498 53.953C35.5162 54.8764 35.0762 56.0432 35.0762 57.3114C35.0762 58.5797 35.5162 59.7465 36.2498 60.6699H9.64488C10.3785 59.7465 10.8185 58.5797 10.8185 57.3114C10.8185 56.0432 10.3785 54.8763 9.64488 53.953H36.2498ZM38.3589 47.4479H38.3586C38.3586 47.4868 38.327 47.5184 38.288 47.5184H18.5608C17.9945 47.5184 17.5354 47.9775 17.5354 48.5438C17.5354 49.1101 17.9945 49.5692 18.5608 49.5692H32.8789V51.9022H13.0104V49.5692H14.1769C14.7432 49.5692 15.2023 49.1101 15.2023 48.5438C15.2023 47.9775 14.7432 47.5184 14.1769 47.5184H7.6012C6.95793 47.5184 6.43471 46.9951 6.43471 46.3519V38.6802C6.43471 38.0369 6.95807 37.5137 7.6012 37.5137H27.3991V39.9643C27.3991 40.8237 27.7338 41.6316 28.3416 42.2393L30.3455 44.2432C30.9532 44.8509 31.761 45.1856 32.6205 45.1856H38.3589V47.4479ZM35.2808 32.0333C35.3117 32.0333 35.3395 32.0539 35.3484 32.0836L38.2633 41.8005C38.3266 42.0116 38.3587 42.2304 38.3587 42.4506V43.1347H32.6203C32.3087 43.1347 32.0159 43.0132 31.7955 42.793L29.7916 40.7891C29.5713 40.5687 29.4499 40.2758 29.4499 39.9643V32.1038C29.4499 32.0649 29.4815 32.0333 29.5205 32.0333H35.2808ZM54.8941 19.0957L56.0449 18.5368C57.5324 17.81 58.2122 16.0404 57.5924 14.5084C57.2758 13.7255 56.6733 13.1127 55.8957 12.7829C55.4105 12.5771 54.8933 12.497 54.3828 12.5428L54.5957 9.89321C54.598 9.86491 54.6167 9.84098 54.6437 9.83196L56.1421 9.33238C56.1494 9.32992 56.171 9.32268 56.1979 9.33717C56.2247 9.35152 56.2304 9.37285 56.2326 9.38092L65.7205 44.4719C65.188 44.3152 64.6254 44.2298 64.0429 44.2298H63.458L54.8941 19.0957ZM64.0429 54.0941H59.438L62.0424 46.2807H64.0429C66.197 46.2807 67.9496 48.0332 67.9496 50.1875C67.9496 52.3416 66.1971 54.0941 64.0429 54.0941Z" fill="#42403F"/>
</svg>
