<svg width="32" height="32" viewBox="0 0 32 32" fill="none" xmlns="http://www.w3.org/2000/svg">
<g clip-path="url(#clip0_733_3176)">
<path d="M31.7369 4.21423C31.4234 3.83164 30.9036 3.68977 30.4415 3.86002L1.08796 14.4884C0.501533 14.702 0.0899124 15.2199 0.0134964 15.84C-0.0621872 16.4571 0.209297 17.056 0.718575 17.4006L4.91438 20.2705C5.32087 20.5486 5.84357 20.5785 6.27888 20.3483L15.3804 15.5393L8.28693 20.8463C7.95393 21.0956 7.75495 21.4931 7.75495 21.9094V26.8253C7.75495 27.3324 8.03254 27.7969 8.47932 28.0381C8.92683 28.2793 9.46735 28.2553 9.8924 27.9745L13.0801 25.8559L16.2149 27.9975C16.4896 28.1861 16.8167 28.2854 17.1468 28.2854C17.2584 28.2854 17.3704 28.2739 17.4808 28.2509C17.921 28.1589 18.3104 27.8864 18.5494 27.5034L31.8299 5.56159C32.0884 5.13913 32.0513 4.59852 31.7369 4.21423ZM17.0767 26.3113L13.8304 24.0934C13.6046 23.9388 13.3443 23.8615 13.0843 23.8615C12.8299 23.8615 12.5753 23.9356 12.3524 24.0838L9.63093 25.8926V22.1868L22.1566 12.8157C22.7159 12.3972 22.8568 11.6355 22.484 11.044C22.1109 10.4525 21.3641 10.2526 20.7467 10.579L5.69782 18.5303L2.14899 16.1029L29.1795 6.31574L17.0767 26.3113Z" fill="white"/>
</g>
<defs>
<clipPath id="clip0_733_3176">
<rect width="32" height="32" fill="white"/>
</clipPath>
</defs>
</svg>
