<svg width="70" height="70" viewBox="0 0 70 70" fill="none" xmlns="http://www.w3.org/2000/svg">
<g clip-path="url(#clip0_731_10058)">
<path d="M47.0657 55.498H25.6372C24.9526 55.498 24.3984 54.9438 24.3984 54.2599C24.3984 53.5753 24.9526 53.0211 25.6372 53.0211H47.0657C47.7503 53.0211 48.3045 53.5753 48.3045 54.2599C48.3045 54.9438 47.7503 55.498 47.0657 55.498Z" fill="#42403F"/>
<path d="M63.9703 43.9408C63.3388 43.9408 62.7995 43.4603 62.7393 42.819L62.0568 35.6634C54.1982 29.4022 31.7705 31.3723 31.5401 31.3936C31.4983 31.3985 31.4558 31.3964 31.4133 31.3985L9.38384 31.1476C6.63556 31.1526 4.02406 32.6805 2.74276 35.1113L6.50516 38.4761C7.014 38.9318 7.05793 39.7149 6.60154 40.2252C6.14515 40.7354 5.36418 40.778 4.85322 40.3216L0.412601 36.3508C0.0284941 36.0071 -0.102612 35.4607 0.0837716 34.9802C1.55358 31.1937 5.24725 28.6708 9.30163 28.6708H9.41289L31.38 28.921C33.0553 28.7736 55.8927 26.8955 64.0624 34.1135C64.2984 34.3218 64.4458 34.611 64.4748 34.9242L65.2048 42.5851C65.2693 43.2661 64.7704 43.8706 64.0893 43.9351C64.0489 43.9394 64.0092 43.9408 63.9703 43.9408Z" fill="#42403F"/>
<path d="M15.3288 63.1689C14.9177 63.1689 14.5294 62.9648 14.2969 62.6161C13.8264 61.9068 12.6932 61.8628 12.168 62.5616C11.8824 62.9436 11.4041 63.1214 10.9321 63.0336C8.92156 62.6275 7.06126 61.7742 5.40223 60.4958C5.07553 60.2442 4.89552 59.8473 4.92174 59.4363C4.94584 59.0529 4.81544 58.6964 4.55323 58.4321C4.30519 58.1812 4.00612 58.0451 3.59863 58.0529C3.59084 58.0529 3.58304 58.0529 3.57454 58.0529C3.17059 58.0529 2.79073 57.8559 2.55828 57.5235C1.37407 55.8262 0.590266 53.8384 0.290493 51.7726C0.234507 51.3913 0.359235 51.0072 0.627826 50.7308C0.868779 50.4842 1.00059 50.161 1.00059 49.8223C1.00059 49.4821 0.868779 49.1596 0.627826 48.9123C0.359235 48.6373 0.234507 48.2525 0.290493 47.8712C0.590266 45.8061 1.37407 43.8169 2.55828 42.1196C2.79569 41.7801 3.19043 41.5923 3.59863 41.5902C4.00754 41.5866 4.30519 41.4626 4.55323 41.211C4.81544 40.9467 4.94584 40.5916 4.92174 40.2068C4.89552 39.7958 5.07553 39.3989 5.40223 39.1473C7.05914 37.871 8.91943 37.0177 10.9321 36.6095C11.4048 36.5167 11.8824 36.6995 12.1695 37.0815C12.6903 37.781 13.8249 37.7378 14.2983 37.0269C14.562 36.6315 15.0354 36.421 15.5003 36.4876C17.5066 36.7697 19.3683 37.4699 21.0337 38.5719C21.483 38.8681 21.6885 39.4195 21.5425 39.9368C21.4135 40.4017 21.5326 40.8779 21.865 41.211C22.2058 41.5547 22.7111 41.6766 23.1867 41.5228C23.6983 41.3641 24.2575 41.5448 24.5693 41.9828C25.7202 43.5901 26.4898 45.3781 26.8527 47.3008C26.9583 47.8535 26.6762 48.407 26.1688 48.6494C25.7067 48.8691 25.419 49.3191 25.419 49.823C25.419 50.3261 25.7067 50.7761 26.1702 50.9973C26.6776 51.2389 26.9583 51.7924 26.8534 52.3459C26.4891 54.2657 25.7216 56.0537 24.57 57.6617C24.2575 58.099 23.699 58.2804 23.1874 58.121C22.7118 57.9686 22.2066 58.0905 21.8657 58.4328C21.534 58.7659 21.4142 59.2421 21.5432 59.7084C21.6885 60.2258 21.4816 60.7778 21.033 61.0733C19.3669 62.1753 17.5051 62.8769 15.501 63.1576C15.4436 63.1654 15.3855 63.1689 15.3288 63.1689ZM13.2098 59.5539C14.1913 59.5539 15.1176 59.9309 15.8128 60.5929C16.9488 60.3647 18.0211 59.9678 19.0182 59.4037C19.004 58.3981 19.3874 57.4116 20.1096 56.6859C20.8771 55.9134 21.9188 55.5215 22.9804 55.5832C23.5453 54.6697 23.9676 53.6924 24.2419 52.6648C23.4319 51.9554 22.9415 50.9193 22.9415 49.8223C22.9415 48.7245 23.4319 47.6877 24.2419 46.9783C23.9676 45.9507 23.5453 44.9734 22.9804 44.0599C21.9202 44.1173 20.8778 43.729 20.1096 42.9572C19.3874 42.2315 19.004 41.2458 19.0182 40.2394C18.0232 39.6767 16.9495 39.2784 15.8114 39.0517C14.4706 40.3238 12.1758 40.3918 10.7705 39.1906C9.55937 39.5144 8.41981 40.0459 7.37167 40.7745C7.26749 41.598 6.89897 42.3669 6.31077 42.9572C5.75232 43.5206 5.04718 43.8835 4.27826 44.0139C3.5802 45.1386 3.08625 46.3986 2.83042 47.7082C3.25279 48.3283 3.47815 49.0604 3.47815 49.8223C3.47815 50.5841 3.25279 51.3147 2.83042 51.9348C3.08625 53.2452 3.5802 54.5038 4.27826 55.6292C5.04718 55.7596 5.75232 56.1239 6.31218 56.6859C6.89897 57.2776 7.26749 58.048 7.37167 58.8693C8.42123 59.5986 9.56079 60.1294 10.7712 60.4525C11.448 59.875 12.302 59.5539 13.2098 59.5539Z" fill="#42403F"/>
<path d="M13.6171 56.064C10.1743 56.064 7.375 53.2647 7.375 49.8219C7.375 46.3791 10.1743 43.5798 13.6171 43.5798C17.0592 43.5798 19.8592 46.3791 19.8592 49.8219C19.8592 53.2647 17.0585 56.064 13.6171 56.064ZM13.6171 46.0567C11.5399 46.0567 9.85185 47.7455 9.85185 49.8219C9.85185 51.8984 11.5406 53.5872 13.6171 53.5872C15.6935 53.5872 17.3816 51.8984 17.3816 49.8219C17.3816 47.7455 15.6935 46.0567 13.6171 46.0567Z" fill="#42403F"/>
<path d="M59.7047 64.178C59.2951 64.178 58.9067 63.9732 58.6743 63.626C58.3128 63.0831 57.4504 63.0477 57.0464 63.5849C56.7594 63.9661 56.2824 64.144 55.8105 64.0561C54.0189 63.6933 52.3634 62.9336 50.8901 61.7983C50.5641 61.5467 50.3848 61.1498 50.4103 60.7395C50.4216 60.5694 50.3997 60.2413 50.1297 59.9706C49.9397 59.7806 49.6641 59.68 49.4018 59.6828C48.9759 59.6835 48.5961 59.4922 48.3601 59.1535C47.307 57.6418 46.6089 55.8715 46.341 54.0346C46.2858 53.6534 46.4098 53.2692 46.6791 52.9929C46.8626 52.8036 46.9633 52.5584 46.9633 52.2998C46.9633 52.0411 46.8626 51.7945 46.6791 51.606C46.4098 51.3303 46.2858 50.9455 46.341 50.5642C46.6089 48.7252 47.307 46.9563 48.3601 45.4454C48.5961 45.1052 48.9731 44.8926 49.4018 44.916C49.6633 44.9287 49.9397 44.8182 50.1325 44.6254C50.3997 44.3568 50.4216 44.0301 50.4103 43.8586C50.3848 43.4476 50.5655 43.0507 50.8901 42.8006C52.3663 41.6645 54.0217 40.9048 55.8105 40.5427C56.2846 40.4513 56.7608 40.6327 57.0464 41.0147C57.4504 41.5476 58.3142 41.5164 58.6743 40.9736C58.9393 40.5788 59.4099 40.3655 59.8762 40.4343C61.6592 40.6844 63.3161 41.3074 64.7987 42.2882C65.248 42.5837 65.4549 43.1358 65.309 43.6538C65.2104 44.0103 65.3005 44.3731 65.5542 44.6261C65.815 44.8883 66.1984 44.9776 66.5626 44.8657C67.0715 44.7034 67.632 44.8876 67.9446 45.3228C68.9693 46.7515 69.6525 48.3439 69.9778 50.0554C70.0834 50.6088 69.8013 51.1637 69.2932 51.4054C68.9403 51.5734 68.7199 51.9157 68.7199 52.3005C68.7199 52.6839 68.9403 53.0276 69.2946 53.1963C69.8027 53.4386 70.0834 53.9921 69.9785 54.5456C69.6532 56.2571 68.9693 57.8481 67.9453 59.2768C67.6334 59.7112 67.075 59.894 66.5647 59.7353C66.2005 59.6198 65.8135 59.7112 65.5542 59.9734C65.3033 60.2264 65.2104 60.5907 65.3097 60.9457C65.4549 61.4638 65.248 62.0165 64.7994 62.3113C63.3176 63.2908 61.6614 63.9151 59.8783 64.1667C59.8195 64.1738 59.7614 64.178 59.7047 64.178ZM57.8423 60.7005C58.7154 60.7005 59.5424 61.0272 60.1745 61.6005C61.1008 61.4071 61.9774 61.0825 62.7953 60.6311C62.8059 59.7381 63.1567 58.8693 63.7973 58.2251C64.4819 57.5384 65.4316 57.1812 66.3436 57.2088C66.7951 56.4661 67.1352 55.6759 67.3663 54.8468C66.6632 54.1969 66.243 53.2742 66.243 52.2998C66.243 51.3239 66.664 50.4012 67.3663 49.7513C67.1352 48.9215 66.7944 48.132 66.3443 47.3907C65.3827 47.4261 64.4805 47.0619 63.7973 46.3737C63.1567 45.7303 62.8045 44.8621 62.7953 43.9678C61.9774 43.5156 61.1008 43.191 60.1745 42.9983C58.9584 44.1024 56.9344 44.1612 55.6631 43.1237C54.6652 43.3994 53.7227 43.8381 52.8524 44.4362C52.7454 45.1669 52.4109 45.8472 51.8865 46.3737C51.3869 46.8748 50.7646 47.2036 50.0857 47.3319C49.5103 48.2737 49.0999 49.3212 48.8802 50.4111C49.2445 50.9696 49.4401 51.6216 49.4401 52.3005C49.4401 52.9794 49.2445 53.6307 48.8802 54.1884C49.0992 55.2876 49.5032 56.3194 50.085 57.2669C50.7646 57.3966 51.3862 57.724 51.8858 58.2251C52.4109 58.7538 52.7447 59.4341 52.8524 60.164C53.7227 60.7615 54.6638 61.2001 55.6631 61.4758C56.2739 60.9762 57.0351 60.7005 57.8423 60.7005Z" fill="#42403F"/>
<path d="M58.1987 57.9345C55.0904 57.9345 52.5625 55.4066 52.5625 52.299C52.5625 49.1907 55.0904 46.6628 58.1987 46.6628C61.3063 46.6628 63.8341 49.1907 63.8341 52.299C63.8341 55.4066 61.3063 57.9345 58.1987 57.9345ZM58.1987 49.1404C56.4574 49.1404 55.0394 50.5578 55.0394 52.2997C55.0394 54.0417 56.4567 55.4583 58.1987 55.4583C59.9406 55.4583 61.3573 54.0417 61.3573 52.2997C61.3573 50.5578 59.9406 49.1404 58.1987 49.1404Z" fill="#42403F"/>
<path d="M42.1099 34.4436C41.4253 34.4436 40.8711 33.8894 40.8711 33.2048V15.8654C40.8711 15.1815 41.4253 14.6273 42.1099 14.6273H47.0636C47.7482 14.6273 48.3024 15.1815 48.3024 15.8654C48.3024 16.55 47.7482 17.1042 47.0636 17.1042H43.3479V33.2048C43.3479 33.8901 42.7938 34.4436 42.1099 34.4436Z" fill="#42403F"/>
<path d="M30.962 12.15H7.43019C6.7456 12.15 6.19141 11.5958 6.19141 10.9119V7.1963C6.19141 6.51171 6.7456 5.95752 7.43019 5.95752H30.962C31.6459 5.95752 32.2008 6.51171 32.2008 7.1963V10.9119C32.2008 11.5965 31.6459 12.15 30.962 12.15ZM8.66897 9.67315H29.7233V8.43508H8.66897V9.67315Z" fill="#42403F"/>
<path d="M37.1565 40.6362C37.1423 40.6362 37.1288 40.6362 37.1146 40.6348L29.6834 40.3811C29.5856 40.3783 29.4878 40.3627 29.3928 40.3365L26.3561 39.4889C26.1506 39.4315 25.9642 39.3223 25.814 39.1728C22.6469 36.0135 18.4401 34.2744 13.9683 34.2744C12.6863 34.2744 11.3568 34.4395 10.0181 34.7634C9.81258 34.8123 9.59714 34.808 9.39375 34.752L7.34353 34.1794C6.7376 34.0122 6.35491 33.4155 6.45271 32.7954L9.92314 10.7198C10.0188 10.1175 10.5376 9.67383 11.1477 9.67383H31.2737C31.8151 9.67383 32.2956 10.0268 32.4565 10.5448L38.3393 29.4738C38.3761 29.5935 38.3952 29.7175 38.3952 29.8416V39.3982C38.3952 39.7348 38.2585 40.0551 38.0182 40.289C37.7851 40.5115 37.4768 40.6362 37.1565 40.6362ZM29.9151 37.9113L35.9177 38.1154V30.0287L30.3609 12.15H12.2072L9.0713 32.0909L9.75306 32.2808C16.3757 30.7884 22.7347 32.7564 27.3284 37.1892L29.9151 37.9113Z" fill="#42403F"/>
<path d="M21.0552 34.4437C20.3706 34.4437 19.8164 33.8895 19.8164 33.205V10.9119C19.8164 10.2273 20.3706 9.6731 21.0552 9.6731C21.7391 9.6731 22.294 10.2273 22.294 10.9119V33.205C22.294 33.8903 21.7391 34.4437 21.0552 34.4437Z" fill="#42403F"/>
<path d="M49.1732 46.3834C48.8521 46.3834 48.5318 46.2601 48.2887 46.0114C46.1924 43.8761 42.5377 41.2086 37.027 40.6282C36.3453 40.5573 35.8527 39.9471 35.925 39.2682C35.9966 38.5865 36.6131 38.0911 37.2857 38.1662C43.5278 38.8232 47.675 41.8514 50.0562 44.2779C50.5352 44.7648 50.5282 45.55 50.0399 46.0291C49.7996 46.2651 49.4864 46.3834 49.1732 46.3834Z" fill="#42403F"/>
</g>
<defs>
<clipPath id="clip0_731_10058">
<rect width="70" height="70" fill="white"/>
</clipPath>
</defs>
</svg>
