<svg width="70" height="70" viewBox="0 0 70 70" fill="none" xmlns="http://www.w3.org/2000/svg">
<path d="M56.7329 50.7434H24.8413C24.5904 50.7434 24.3498 50.6438 24.1724 50.4664C23.995 50.289 23.8953 50.0484 23.8953 49.7975C23.8953 49.5466 23.995 49.306 24.1724 49.1286C24.3498 48.9512 24.5904 48.8516 24.8413 48.8516H56.7329C57.164 48.8508 57.5772 48.6791 57.8819 48.3741C58.1866 48.069 58.3578 47.6556 58.358 47.2245V36.9137C58.3606 36.3639 58.2601 35.8185 58.062 35.3056C55.5533 28.9952 50.9674 22.5353 44.4299 16.1029C43.5904 15.2754 42.4597 14.8101 41.2809 14.807H5.9375C5.36633 14.808 4.81891 15.0357 4.41556 15.4401C4.01221 15.8445 3.78592 16.3925 3.78642 16.9637V46.6995C3.78717 47.2699 4.01402 47.8167 4.41723 48.2201C4.82045 48.6235 5.36715 48.8506 5.9375 48.8516H12.1694C12.4203 48.8516 12.6609 48.9512 12.8383 49.1286C13.0157 49.306 13.1153 49.5466 13.1153 49.7975C13.1153 50.0484 13.0157 50.289 12.8383 50.4664C12.6609 50.6438 12.4203 50.7434 12.1694 50.7434H5.9375C4.86554 50.7419 3.83792 50.3154 3.08002 49.5573C2.32211 48.7992 1.89578 47.7715 1.89453 46.6995V16.9637C1.89578 15.8918 2.32211 14.864 3.08002 14.106C3.83792 13.3479 4.86554 12.9213 5.9375 12.9198H41.2809C42.9542 12.922 44.5599 13.581 45.7524 14.7549C52.4809 21.3709 57.2125 28.0502 59.8214 34.6113C60.1073 35.3464 60.2527 36.1287 60.2499 36.9175V47.2283C60.2482 48.1604 59.877 49.0537 59.2178 49.7126C58.5585 50.3715 57.665 50.7422 56.7329 50.7434Z" fill="#42403F"/>
<path d="M59.3035 38.7424H47.1491C46.8982 38.7424 46.6576 38.6427 46.4802 38.4653C46.3028 38.2879 46.2031 38.0473 46.2031 37.7964C46.2031 37.5455 46.3028 37.3049 46.4802 37.1275C46.6576 36.9501 46.8982 36.8505 47.1491 36.8505H59.3035C59.5544 36.8505 59.795 36.9501 59.9724 37.1275C60.1498 37.3049 60.2495 37.5455 60.2495 37.7964C60.2495 38.0473 60.1498 38.2879 59.9724 38.4653C59.795 38.6427 59.5544 38.7424 59.3035 38.7424Z" fill="#42403F"/>
<path d="M33.2281 38.7424H2.84048C2.5896 38.7424 2.34899 38.6427 2.17159 38.4653C1.99419 38.2879 1.89453 38.0473 1.89453 37.7964C1.89453 37.5455 1.99419 37.3049 2.17159 37.1275C2.34899 36.9501 2.5896 36.8505 2.84048 36.8505H33.2281C33.4789 36.8505 33.7195 36.9501 33.8969 37.1275C34.0743 37.3049 34.174 37.5455 34.174 37.7964C34.174 38.0473 34.0743 38.2879 33.8969 38.4653C33.7195 38.6427 33.4789 38.7424 33.2281 38.7424Z" fill="#42403F"/>
<path d="M15.1547 29.5042H7.98251C7.44051 29.505 6.92036 29.2907 6.53622 28.9083C6.15208 28.5259 5.93535 28.0068 5.93359 27.4648V20.3702C5.93384 19.8268 6.14976 19.3057 6.53393 18.9213C6.91809 18.537 7.4391 18.3208 7.98251 18.3203H15.1547C15.698 18.3211 16.2189 18.5373 16.603 18.9216C16.9871 19.3059 17.2031 19.8268 17.2036 20.3702V27.4648C17.2016 28.0067 16.9848 28.5257 16.6007 28.908C16.2166 29.2903 15.6966 29.5047 15.1547 29.5042ZM7.98251 20.2103C7.94086 20.2108 7.90106 20.2276 7.87169 20.2572C7.84232 20.2867 7.82573 20.3266 7.82549 20.3683V27.4629C7.82585 27.483 7.83022 27.5028 7.83836 27.5211C7.8465 27.5395 7.85823 27.556 7.87287 27.5698C7.8875 27.5835 7.90475 27.5942 7.92358 27.6012C7.94241 27.6082 7.96245 27.6113 7.98251 27.6104H15.1547C15.1747 27.6112 15.1947 27.608 15.2135 27.6009C15.2322 27.5939 15.2494 27.5832 15.264 27.5695C15.2787 27.5558 15.2904 27.5393 15.2986 27.521C15.3068 27.5027 15.3112 27.4829 15.3117 27.4629V20.3683C15.3112 20.3267 15.2945 20.2869 15.2652 20.2574C15.2359 20.228 15.1963 20.211 15.1547 20.2103H7.98251Z" fill="#42403F"/>
<path d="M28.6078 29.5042H21.4366C20.8945 29.505 20.3742 29.2907 19.99 28.9084C19.6057 28.526 19.3887 28.0069 19.3867 27.4648V20.3702C19.3872 19.8267 19.6033 19.3056 19.9877 18.9213C20.372 18.5369 20.8931 18.3208 21.4366 18.3203H28.6078C29.1513 18.3208 29.6724 18.5369 30.0567 18.9213C30.441 19.3056 30.6572 19.8267 30.6577 20.3702V27.4648C30.6559 28.0069 30.439 28.5262 30.0547 28.9086C29.6704 29.291 29.15 29.5052 28.6078 29.5042ZM21.4366 20.2103C21.3948 20.2108 21.3549 20.2276 21.3254 20.2571C21.2959 20.2866 21.2791 20.3265 21.2786 20.3683V27.4629C21.2791 27.483 21.2836 27.5028 21.2918 27.5212C21.3001 27.5396 21.3119 27.5561 21.3266 27.5698C21.3413 27.5836 21.3586 27.5943 21.3775 27.6012C21.3964 27.6082 21.4165 27.6113 21.4366 27.6105H28.6078C28.6279 27.6113 28.648 27.6082 28.6669 27.6012C28.6858 27.5943 28.7031 27.5836 28.7178 27.5698C28.7325 27.5561 28.7443 27.5396 28.7526 27.5212C28.7608 27.5028 28.7653 27.483 28.7658 27.4629V20.3683C28.7653 20.3265 28.7485 20.2866 28.719 20.2571C28.6894 20.2276 28.6495 20.2108 28.6078 20.2103H21.4366Z" fill="#42403F"/>
<path d="M47.1456 50.7397H33.2194C32.9685 50.7397 32.7279 50.6401 32.5505 50.4627C32.3731 50.2853 32.2734 50.0447 32.2734 49.7938V31.0754C32.2742 30.3293 32.5709 29.6139 33.0985 29.0863C33.6261 28.5587 34.3415 28.262 35.0876 28.2612H45.2773C46.0235 28.262 46.7388 28.5587 47.2664 29.0863C47.794 29.6139 48.0908 30.3293 48.0915 31.0754V49.7938C48.0915 50.0447 47.9919 50.2853 47.8145 50.4627C47.6371 50.6401 47.3965 50.7397 47.1456 50.7397ZM34.1653 48.8479H46.1996V31.0754C46.1994 30.8309 46.1021 30.5964 45.9292 30.4235C45.7563 30.2506 45.5219 30.1534 45.2773 30.1531H35.0876C34.8431 30.1534 34.6086 30.2506 34.4357 30.4235C34.2628 30.5964 34.1656 30.8309 34.1653 31.0754V48.8479Z" fill="#42403F"/>
<path d="M18.5025 57.0802C17.0619 57.0802 15.6537 56.653 14.4559 55.8526C13.2581 55.0523 12.3245 53.9147 11.7732 52.5837C11.2219 51.2528 11.0777 49.7883 11.3587 48.3754C11.6398 46.9625 12.3335 45.6646 13.3521 44.6459C14.3708 43.6273 15.6686 42.9336 17.0815 42.6525C18.4945 42.3715 19.959 42.5157 21.2899 43.067C22.6209 43.6183 23.7584 44.5519 24.5588 45.7497C25.3591 46.9475 25.7863 48.3558 25.7863 49.7964C25.7833 51.7272 25.015 53.5781 23.6496 54.9435C22.2843 56.3088 20.4334 57.0771 18.5025 57.0802ZM18.5025 44.4045C17.4361 44.4045 16.3937 44.7207 15.507 45.3132C14.6203 45.9056 13.9292 46.7477 13.5211 47.733C13.113 48.7182 13.0062 49.8023 13.2142 50.8483C13.4223 51.8942 13.9358 52.8549 14.6899 53.609C15.444 54.3631 16.4047 54.8766 17.4506 55.0847C18.4966 55.2927 19.5807 55.1859 20.5659 54.7778C21.5512 54.3697 22.3933 53.6786 22.9857 52.7919C23.5782 51.9052 23.8944 50.8628 23.8944 49.7964C23.8934 48.3662 23.3252 46.9949 22.3144 45.9831C21.3035 44.9714 19.9327 44.402 18.5025 44.3997V44.4045Z" fill="#42403F"/>
<path d="M18.5016 53.6075C17.7472 53.6075 17.0098 53.3838 16.3826 52.9647C15.7554 52.5456 15.2665 51.9499 14.9778 51.253C14.6892 50.5561 14.6136 49.7892 14.7608 49.0493C14.908 48.3095 15.2712 47.6299 15.8046 47.0965C16.338 46.5631 17.0176 46.1998 17.7575 46.0527C18.4973 45.9055 19.2642 45.981 19.9611 46.2697C20.6581 46.5584 21.2537 47.0472 21.6728 47.6744C22.0919 48.3017 22.3156 49.0391 22.3156 49.7934C22.3144 50.8046 21.9121 51.774 21.1971 52.489C20.4821 53.204 19.5127 53.6062 18.5016 53.6075ZM18.5016 47.8713C18.1214 47.8713 17.7498 47.984 17.4337 48.1952C17.1176 48.4064 16.8712 48.7066 16.7257 49.0578C16.5802 49.4091 16.5422 49.7956 16.6163 50.1684C16.6905 50.5413 16.8736 50.8838 17.1424 51.1526C17.4112 51.4214 17.7537 51.6045 18.1266 51.6786C18.4994 51.7528 18.8859 51.7147 19.2371 51.5693C19.5884 51.4238 19.8886 51.1774 20.0998 50.8613C20.311 50.5452 20.4237 50.1736 20.4237 49.7934C20.4232 49.2838 20.2205 48.7952 19.8602 48.4348C19.4998 48.0744 19.0112 47.8718 18.5016 47.8713Z" fill="#42403F"/>
<path d="M64.1437 45.0033H59.3014C59.0505 45.0033 58.8099 44.9036 58.6325 44.7262C58.4551 44.5488 58.3555 44.3082 58.3555 44.0573C58.3555 43.8064 58.4551 43.5658 58.6325 43.3884C58.8099 43.211 59.0505 43.1114 59.3014 43.1114H64.1437C64.6933 43.1106 65.2202 42.8919 65.6087 42.5032C65.9973 42.1145 66.2158 41.5875 66.2163 41.0379C66.2163 40.787 66.3159 40.5464 66.4933 40.369C66.6707 40.1916 66.9113 40.0919 67.1622 40.0919C67.4131 40.0919 67.6537 40.1916 67.8311 40.369C68.0085 40.5464 68.1082 40.787 68.1082 41.0379C68.1062 42.0888 67.6879 43.0961 66.9449 43.8393C66.2018 44.5825 65.1946 45.001 64.1437 45.0033Z" fill="#42403F"/>
<path d="M33.2451 14.8118H17.6569C17.406 14.8118 17.1654 14.7121 16.988 14.5347C16.8106 14.3573 16.7109 14.1167 16.7109 13.8658V10.5238C16.7119 9.70873 17.0362 8.92735 17.6125 8.35102C18.1888 7.77469 18.9702 7.45046 19.7853 7.44946H31.1205C31.9356 7.45046 32.717 7.77469 33.2933 8.35102C33.8696 8.92735 34.1939 9.70873 34.1949 10.5238V13.8658C34.1949 13.9904 34.1703 14.1137 34.1225 14.2287C34.0747 14.3437 34.0047 14.4481 33.9165 14.536C33.8282 14.6239 33.7235 14.6935 33.6083 14.7408C33.4931 14.7882 33.3697 14.8123 33.2451 14.8118ZM18.6028 12.9199H32.2992V10.5238C32.2989 10.2103 32.1743 9.90965 31.9526 9.68796C31.7309 9.46626 31.4303 9.3416 31.1168 9.34135H19.7853C19.4718 9.34185 19.1714 9.46659 18.9497 9.68823C18.7281 9.90987 18.6033 10.2103 18.6028 10.5238V12.9199Z" fill="#42403F"/>
</svg>
