<svg width="32" height="33" viewBox="0 0 32 33" fill="none" xmlns="http://www.w3.org/2000/svg">
<path d="M10.25 14.75C11.75 14.75 13.0417 14.229 14.125 13.187C15.2084 12.145 15.75 10.874 15.75 9.37405C15.75 7.87405 15.2084 6.60305 14.125 5.56105C13.0417 4.51905 11.75 3.99805 10.25 3.99805C8.75005 3.99805 7.45838 4.51905 6.37505 5.56105C5.29171 6.60305 4.75005 7.87405 4.75005 9.37405C4.75005 10.874 5.29171 12.145 6.37505 13.187C7.45838 14.229 8.75005 14.75 10.25 14.75ZM10.25 5.75005C11.3334 5.75005 12.2294 6.10438 12.938 6.81305C13.6467 7.52171 14.001 8.37605 14.001 9.37605C14.001 10.376 13.6467 11.2304 12.938 11.939C12.2294 12.6477 11.3334 13.002 10.25 13.002C9.16671 13.002 8.27071 12.6477 7.56205 11.939C6.85338 11.2304 6.49905 10.376 6.49905 9.37605C6.49905 8.37605 6.85338 7.52171 7.56205 6.81305C8.27071 6.10438 9.16671 5.75005 10.25 5.75005ZM23.25 17.25C24.5834 17.25 25.7084 16.7917 26.625 15.875C27.5417 14.9584 28 13.875 28 12.625C28 11.375 27.5417 10.2917 26.625 9.37505C25.7084 8.45838 24.5834 8.00005 23.25 8.00005C21.9167 8.00005 20.7917 8.45838 19.875 9.37505C18.9584 10.2917 18.5 11.375 18.5 12.625C18.5 13.875 18.9584 14.9584 19.875 15.875C20.7917 16.7917 21.9167 17.25 23.25 17.25ZM23.25 9.75005C24.0834 9.75005 24.7917 10.021 25.375 10.563C25.9584 11.105 26.25 11.7717 26.25 12.563C26.25 13.3544 25.9584 14.042 25.375 14.626C24.7917 15.21 24.0834 15.5017 23.25 15.501C22.4167 15.5004 21.7084 15.2087 21.125 14.626C20.5417 14.0434 20.25 13.3557 20.25 12.563C20.25 11.7704 20.5417 11.1037 21.125 10.563C21.7084 10.0224 22.4167 9.75138 23.25 9.75005ZM23.5 18.375H23C21.5 18.375 20.0834 18.7917 18.75 19.625C18.0834 18.7084 17.229 17.9584 16.187 17.375C15.145 16.7917 13.999 16.5 12.749 16.5H7.74905C6.41571 16.5 5.20738 16.8127 4.12405 17.438C3.04071 18.0634 2.18638 18.9177 1.56105 20.001C0.935714 21.0844 0.623047 22.2927 0.623047 23.626V27.501C0.623047 27.9177 0.769047 28.272 1.06105 28.564C1.35305 28.856 1.70738 29.002 2.12405 29.002H29.999C30.4157 29.002 30.77 28.856 31.062 28.564C31.354 28.272 31.5 27.9177 31.5 27.501V26.251C31.4167 24.8344 31.0207 23.5217 30.312 22.313C29.6034 21.1044 28.645 20.146 27.437 19.438C26.229 18.73 24.9164 18.3757 23.499 18.375H23.5ZM16.625 27.25H2.37505V23.625C2.37505 22.125 2.89605 20.854 3.93805 19.812C4.98005 18.77 6.25105 18.249 7.75105 18.249H12.751C14.251 18.249 15.522 18.77 16.564 19.812C17.606 20.854 18.127 22.125 18.127 23.625V27.25H16.627H16.625ZM29.625 27.25H19.875V23.625C19.875 22.875 19.75 22.0834 19.5 21.25C20.5834 20.5 21.75 20.125 23 20.125H23.5C25.1667 20.125 26.6044 20.7294 27.813 21.938C29.0217 23.1467 29.626 24.5844 29.626 26.251V27.251L29.625 27.25Z" 
fill="#A40731"/>
</svg>
