<svg width="33" height="32" viewBox="0 0 33 32" fill="none" xmlns="http://www.w3.org/2000/svg">
<path d="M16.4375 13.625C18.2708 13.625 19.8542 13 21.1875 11.75C22.5208 10.5 23.1875 8.97902 23.1875 7.18702C23.1875 5.39502 22.5208 3.85336 21.1875 2.56202C19.8542 1.27069 18.2708 0.624691 16.4375 0.624024C14.6042 0.623357 13.0208 1.26936 11.6875 2.56202C10.3542 3.85469 9.6875 5.39636 9.6875 7.18702C9.6875 8.97769 10.3542 10.4987 11.6875 11.75C13.0208 13.0014 14.6042 13.6264 16.4375 13.625ZM16.4375 2.37502C17.7708 2.37502 18.9375 2.85436 19.9375 3.81302C20.9375 4.77169 21.4375 5.89669 21.4375 7.18802C21.4375 8.47936 20.9375 9.58369 19.9375 10.501C18.9375 11.4184 17.7708 11.8767 16.4375 11.876C15.1042 11.8754 13.9375 11.417 12.9375 10.501C11.9375 9.58502 11.4375 8.48069 11.4375 7.18802C11.4375 5.89536 11.9375 4.77036 12.9375 3.81302C13.9375 2.85569 15.1042 2.37636 16.4375 2.37502ZM19.5625 16.25H13.3125C11.7292 16.25 10.2708 16.646 8.9375 17.438C7.60417 18.23 6.5625 19.2717 5.8125 20.563C5.0625 21.8544 4.6875 23.292 4.6875 24.876V29.876C4.6875 30.2927 4.8335 30.647 5.1255 30.939C5.4175 31.231 5.77183 31.377 6.1885 31.377H26.6885C27.1052 31.377 27.4595 31.231 27.7515 30.939C28.0435 30.647 28.1895 30.2927 28.1895 29.876V24.876C28.1895 23.2927 27.8145 21.855 27.0645 20.563C26.3145 19.271 25.2728 18.2294 23.9395 17.438C22.6062 16.6467 21.1478 16.2507 19.5645 16.25H19.5625ZM26.4375 29.625H6.4375V24.875C6.4375 23.625 6.72917 22.479 7.3125 21.437C7.89583 20.395 8.72917 19.5617 9.8125 18.937C10.8958 18.3124 12.0625 17.9997 13.3125 17.999H19.5625C20.8125 17.999 21.9792 18.3117 23.0625 18.937C24.1458 19.5624 24.9792 20.3957 25.5625 21.437C26.1458 22.4784 26.4375 23.6244 26.4375 24.875V29.625Z" fill="#1B1918"/>
</svg>
