<svg width="32" height="32" viewBox="0 0 32 32" fill="none" xmlns="http://www.w3.org/2000/svg">
<path d="M30.6553 11.2942C30.6555 8.28882 29.4775 5.45581 27.3386 3.31689C25.1997 1.17798 22.3667 0 19.3611 0H12.6692C12.6689 0 12.6689 0 12.6689 0C9.66382 0 6.83057 1.17798 4.69189 3.31665C2.55298 5.45581 1.375 8.28882 1.375 11.2942V16.5544C1.375 18.8821 2.08496 21.1208 3.42822 23.0293C4.61328 24.7129 6.20703 26.0281 8.06519 26.8618V29.8833C8.06519 31.4456 8.93994 32 9.68896 32C10.2241 32 10.7593 31.7358 11.2803 31.2151L14.6465 27.8489L19.3613 27.8486C22.3667 27.8486 25.1997 26.6707 27.3386 24.532C29.4775 22.3931 30.6555 19.5598 30.6555 16.5544L30.6553 11.2942ZM19.3613 25.9736L14.2583 25.9739C14.0095 25.9739 13.7712 26.0725 13.5955 26.2483L9.95459 29.8892C9.94995 29.894 9.94507 29.8987 9.94019 29.9033C9.94019 29.8967 9.94019 29.8899 9.94019 29.8833V26.2361C9.94019 25.8472 9.7002 25.4988 9.33691 25.3601C5.69629 23.9709 3.25024 20.4321 3.25024 16.5544V11.2942C3.25024 8.78955 4.23315 6.42725 6.01782 4.64233C7.80249 2.85791 10.1646 1.875 12.6692 1.875H19.3611C21.8657 1.875 24.228 2.85791 26.0127 4.64258C27.7976 6.42749 28.7805 8.78979 28.7803 11.2942L28.7805 16.5544C28.7803 21.7483 24.5549 25.9736 19.3613 25.9736Z" fill="white"/>
<path d="M18.5094 15.3335C18.1435 14.9673 17.55 14.9673 17.1837 15.3335L16.4264 16.0906L13.4919 13.1562L14.2492 12.3992C14.425 12.2234 14.5238 11.9849 14.5238 11.7361C14.5238 11.4875 14.425 11.249 14.2492 11.0732L10.6989 7.52295C10.5231 7.34717 10.2848 7.24829 10.036 7.24829C9.78751 7.24829 9.54898 7.34717 9.3732 7.52295L6.88785 10.0083C5.54385 11.3523 5.54385 13.5396 6.88809 14.8843L14.6984 22.6951C15.3478 23.3442 16.2138 23.7017 17.1364 23.7017C18.0592 23.7017 18.9252 23.3442 19.5746 22.6951L22.06 20.21C22.2357 20.0339 22.3346 19.7957 22.3346 19.5469C22.3346 19.2983 22.2357 19.0598 22.06 18.884L18.5094 15.3335ZM18.2487 21.3689C17.9535 21.6641 17.5585 21.8267 17.1364 21.8267C16.7143 21.8267 16.3192 21.6641 16.0241 21.3689L8.21402 13.5583C7.60074 12.9451 7.60049 11.947 8.21378 11.334L10.036 9.51147L12.2604 11.7361L11.5031 12.4932C11.3273 12.6689 11.2284 12.9075 11.2284 13.156C11.2284 13.4048 11.3273 13.6431 11.5031 13.8191L15.7633 18.0793C16.1295 18.4453 16.7231 18.4456 17.0893 18.0793L17.8466 17.3223L20.071 19.5466L18.2487 21.3689Z" fill="white"/>
<path d="M16.2422 4.14722C15.7244 4.14722 15.3047 4.56689 15.3047 5.08472C15.3047 5.60229 15.7244 6.02222 16.2422 6.02222C18.3877 6.02222 20.405 6.85767 21.9221 8.375C23.4395 9.89209 24.2749 11.9092 24.2749 14.0549C24.2749 14.5725 24.6946 14.9924 25.2124 14.9924C25.73 14.9924 26.1499 14.5728 26.1499 14.0549C26.1499 11.4084 25.1194 8.92041 23.248 7.04907C21.3767 5.17773 18.8887 4.14722 16.2422 4.14722Z" fill="white"/>
<path d="M20.2583 14.0547C20.2583 14.5723 20.6782 14.9922 21.1958 14.9922C21.7136 14.9922 22.1333 14.5723 22.1333 14.0547C22.1333 10.8064 19.4905 8.16382 16.2422 8.16382C15.7244 8.16382 15.3047 8.5835 15.3047 9.10132C15.3047 9.61914 15.7244 10.0388 16.2422 10.0388C18.4568 10.0388 20.2583 11.8403 20.2583 14.0547Z" fill="white"/>
</svg>
