<svg width="32" height="32" viewBox="0 0 32 32" fill="none" xmlns="http://www.w3.org/2000/svg">
<g clip-path="url(#clip0_733_3173)">
<path d="M27.4548 4.54517C24.5237 1.61401 20.6274 0 16.4819 0C16.4817 0 16.4807 0 16.4805 0C14.4302 0.000244141 12.4321 0.397217 10.5422 1.18018C8.6521 1.96313 6.95874 3.09521 5.50879 4.54517C2.57788 7.47607 0.963871 11.373 0.963871 15.5181C0.963871 17.99 1.56031 20.4465 2.69043 22.6353L0.0820349 30.0869C-0.101803 30.6125 0.028324 31.1838 0.422367 31.5776C0.698002 31.8535 1.06079 32 1.43384 32C1.59375 32 1.75537 31.9731 1.91309 31.918L9.36475 29.3098C11.5535 30.4399 14.01 31.0364 16.4819 31.0364C20.627 31.0364 24.5237 29.4221 27.4548 26.4912C30.3857 23.5603 32 19.6633 32 15.5183C32 11.373 30.386 7.47607 27.4548 4.54517ZM26.1277 25.1641C23.5513 27.7407 20.1255 29.1594 16.4819 29.1594C14.2529 29.1594 12.0386 28.6082 10.0781 27.5647C9.72266 27.3757 9.30249 27.3433 8.9253 27.4753L2.15528 29.8447L4.52491 23.0747C4.65699 22.697 4.62427 22.2769 4.43531 21.9216C3.39209 19.9617 2.84058 17.7473 2.84058 15.5181C2.84058 11.8745 4.25953 8.44873 6.83594 5.87231C9.41211 3.29614 12.8374 1.8772 16.4807 1.87671H16.4819C20.1257 1.87671 23.5513 3.29565 26.1277 5.87231C28.7043 8.44873 30.1233 11.8743 30.1233 15.5181C30.1233 19.1619 28.7043 22.5876 26.1277 25.1641Z" fill="white"/>
<path d="M22.2488 16.9043C21.5349 16.1904 20.3733 16.1904 19.6594 16.9043L18.8787 17.6851C16.9399 16.6287 15.3711 15.0598 14.3145 13.1211L15.0952 12.3403C15.8093 11.6265 15.8093 10.4648 15.0952 9.75098L12.9912 7.64697C12.2774 6.93311 11.1157 6.93311 10.4019 7.64697L8.71876 9.33008C7.75465 10.2942 7.70655 11.9517 8.58326 13.9973C9.34449 15.7734 10.7376 17.7256 12.5059 19.4939C14.2742 21.2622 16.2263 22.6553 18.0024 23.4165C18.9744 23.833 19.8584 24.0408 20.6223 24.0408C21.4663 24.0408 22.1636 23.7871 22.6697 23.281L24.3528 21.5977V21.5979C24.6987 21.252 24.8892 20.7922 24.8892 20.3032C24.8892 19.814 24.6987 19.3542 24.3528 19.0085L22.2488 16.9043ZM21.3425 21.9539C21.0674 22.229 20.2212 22.3254 18.742 21.6917C17.1799 21.0222 15.4365 19.7703 13.833 18.1667C12.2295 16.5632 10.9778 14.8201 10.3084 13.2581C9.67432 11.7788 9.77076 10.9324 10.0459 10.6572L11.6968 9.00635L13.7358 11.0457L12.7586 12.0232C12.3167 12.4651 12.21 13.1353 12.4934 13.6909C13.7783 16.2104 15.7893 18.2214 18.3088 19.5063C18.8648 19.7898 19.5349 19.6833 19.9768 19.2412L20.9541 18.2639L22.9934 20.3032L21.3425 21.9539Z" fill="white"/>
</g>
<defs>
<clipPath id="clip0_733_3173">
<rect width="32" height="32" fill="white"/>
</clipPath>
</defs>
</svg>
